<?xml version="1.0" encoding="UTF-8"?>
<svg xmlns="http://www.w3.org/2000/svg" viewBox="0 0 24 24">
  <defs>
    <style>
      .cls-1, .cls-2 {
        stroke-width: 0px;
      }

      .cls-2 {
        fill: #fff;
      }
    </style>
  </defs>
  <g id="background">
    <g id="background-2" data-name="background">
      <rect class="cls-1" y="0" width="24" height="24"/>
    </g>
  </g>
  <g id="texture">
    <g>
      <circle class="cls-2" cx="17.68" cy="7" r="1.98"/>
      <path class="cls-2" d="m8.94,5.53c.75,0,1.49,0,2.24,0,.02,0,.03.01.03.03v.38s-.02.04-.04.04c-.58.01-.92.25-1.03.69-.05.22-.04.48.03.79.06.25.15.5.27.76,1.25,2.68,2.51,5.36,3.76,8.04,0,.02.01.05,0,.07l-1.47,3.75s-.02.03-.04.03h-.35s-.07-.02-.08-.05c-1.67-3.6-3.33-7.19-4.99-10.76-.3-.64-.6-1.28-.91-1.92-.12-.25-.27-.48-.45-.69-.2-.24-.41-.41-.63-.51-.26-.13-.55-.19-.88-.19-.04,0-.06-.03-.06-.06v-.38s.02-.03.04-.03c1.52,0,3.04,0,4.56,0Z"/>
    </g>
  </g>
</svg>