<svg fill="none" xmlns="http://www.w3.org/2000/svg" viewBox="0 0 24 24">
  <style>
    .fg {
      fill: #fff;
    }
    .bg {
      fill: #000;
    }
    @media (prefers-color-scheme: dark) {
      .fg {
        fill: #000;
      }
      .bg {
        fill: #fff;
      }
    }
  </style>
  <g clip-path="url(#a)">
    <path
      class="bg"
      d="M19 0H5a5 5 0 0 0-5 5v14a5 5 0 0 0 5 5h14a5 5 0 0 0 5-5V5a5 5 0 0 0-5-5Z"
    />
    <path
      class="fg"
      d="M17.68 8.98a1.98 1.98 0 1 0 0-3.96 1.98 1.98 0 0 0 0 3.96ZM8.94 5.53h2.24c.02 0 .03.01.03.03v.38s-.02.04-.04.04c-.58.01-.92.25-1.03.69-.05.22-.04.48.03.79.06.25.15.5.27.76 1.25 2.68 2.51 5.36 3.76 8.04 0 .02.01.05 0 .07l-1.47 3.75s-.02.03-.04.03h-.35s-.07-.02-.08-.05c-1.67-3.6-3.33-7.19-4.99-10.76-.3-.64-.6-1.28-.91-1.92a3.15 3.15 0 0 0-.45-.69c-.2-.24-.41-.41-.63-.51a1.93 1.93 0 0 0-.88-.19c-.04 0-.06-.03-.06-.06v-.38s.02-.03.04-.03h4.56v.01Z"
    />
  </g>
  <defs>
    <clipPath id="a"><path class="fg" d="M0 0h24v24H0z" /></clipPath>
  </defs>
</svg>
