<svg width="64" height="64" viewBox="0 0 64 64" fill="none" xmlns="http://www.w3.org/2000/svg">
<style>
    .fg {
      fill: #fff;
    }
    .bg {
      fill: #000;
    }
    @media (prefers-color-scheme: dark) {
      .fg {
        fill: #000;
      }
      .bg {
        fill: #fff;
      }
    }
  </style>
<path class="bg" d="M54 0H10C4.47715 0 0 4.47715 0 10V54C0 59.5229 4.47715 64 10 64H54C59.5229 64 64 59.5229 64 54V10C64 4.47715 59.5229 0 54 0Z"/>
<path class="fg" d="M47.1467 23.9467C50.0627 23.9467 52.4267 21.5827 52.4267 18.6667C52.4267 15.7506 50.0627 13.3867 47.1467 13.3867C44.2306 13.3867 41.8667 15.7506 41.8667 18.6667C41.8667 21.5827 44.2306 23.9467 47.1467 23.9467Z"/>
<path class="fg" d="M23.84 14.7467C25.84 14.7467 27.8133 14.7467 29.8133 14.7467C29.8667 14.7467 29.8933 14.7733 29.8933 14.8267V15.84C29.8933 15.84 29.84 15.9467 29.7867 15.9467C28.24 15.9733 27.3333 16.6133 27.04 17.7867C26.9067 18.3733 26.9333 19.0667 27.12 19.8933C27.28 20.56 27.52 21.2267 27.84 21.92C31.1733 29.0667 34.5333 36.2133 37.8667 43.36C37.8667 43.4133 37.8933 43.4933 37.8667 43.5467L33.9467 53.5467C33.9467 53.5467 33.8933 53.6267 33.84 53.6267H32.9067C32.9067 53.6267 32.72 53.5733 32.6933 53.4933C28.24 43.8933 23.8133 34.32 19.3867 24.8C18.5867 23.0933 17.7867 21.3867 16.96 19.68C16.64 19.0133 16.24 18.4 15.76 17.84C15.2267 17.2 14.6667 16.7467 14.08 16.48C13.3867 16.1333 12.6133 15.9733 11.7333 15.9733C11.6267 15.9733 11.5733 15.8933 11.5733 15.8133V14.8C11.5733 14.8 11.6267 14.72 11.68 14.72C15.7333 14.72 19.7867 14.72 23.84 14.72V14.7467Z"/>
</svg>
