<?xml version="1.0" standalone="no"?>
<!DOCTYPE svg PUBLIC "-//W3C//DTD SVG 20010904//EN"
 "http://www.w3.org/TR/2001/REC-SVG-20010904/DTD/svg10.dtd">
<svg version="1.0" xmlns="http://www.w3.org/2000/svg"
 width="700.000000pt" height="700.000000pt" viewBox="0 0 700.000000 700.000000"
 preserveAspectRatio="xMidYMid meet">
<metadata>
Created by potrace 1.14, written by Peter Selinger 2001-2017
</metadata>
<g transform="translate(0.000000,700.000000) scale(0.100000,-0.100000)"
fill="#000000" stroke="none">
<path d="M0 3500 l0 -3500 3500 0 3500 0 0 3500 0 3500 -3500 0 -3500 0 0
-3500z m5275 2025 c268 -56 457 -289 457 -565 0 -512 -613 -769 -980 -411 -59
57 -116 149 -144 229 -32 94 -32 257 -1 357 88 279 381 450 668 390z m-2010
-205 l0 -65 -64 -7 c-126 -14 -212 -79 -241 -183 -19 -69 -8 -212 25 -314 24
-75 291 -652 954 -2065 110 -235 201 -434 201 -442 0 -18 -419 -1085 -432
-1101 -6 -8 -33 -13 -63 -13 -30 0 -57 5 -63 13 -5 6 -152 320 -327 697 -1161
2507 -1403 3019 -1469 3118 -119 178 -263 271 -445 288 -42 4 -72 12 -75 20
-3 7 -2 37 1 68 l6 56 996 -2 996 -3 0 -65z"/>
</g>
</svg>
