<?xml version="1.0" standalone="no"?>
<!DOCTYPE svg PUBLIC "-//W3C//DTD SVG 20010904//EN"
 "http://www.w3.org/TR/2001/REC-SVG-20010904/DTD/svg10.dtd">
<svg version="1.0" xmlns="http://www.w3.org/2000/svg"
 width="700.000000pt" height="700.000000pt" viewBox="0 0 700.000000 700.000000"
 preserveAspectRatio="xMidYMid meet">
<metadata>
Created by potrace 1.14, written by Peter Selinger 2001-2017
</metadata>
<g transform="translate(0.000000,700.000000) scale(0.100000,-0.100000)"
fill="#000000" stroke="none">
<path d="M0 3500 l0 -3500 3500 0 3500 0 0 3500 0 3500 -3500 0 -3500 0 0
-3500z m5305 2088 c230 -50 428 -250 481 -484 21 -98 15 -251 -15 -344 -48
-151 -170 -296 -308 -368 -108 -56 -187 -76 -308 -76 -180 0 -325 62 -456 194
-252 253 -252 647 0 900 165 167 376 229 606 178z m-1993 -155 c42 -42 34
-208 -10 -232 -9 -5 -50 -14 -90 -20 -107 -17 -140 -37 -177 -110 -19 -39 -23
-149 -6 -221 28 -121 30 -127 950 -2088 127 -271 231 -504 231 -517 0 -30
-424 -1111 -449 -1145 -17 -23 -25 -25 -108 -28 -74 -2 -94 0 -111 15 -12 10
-154 304 -323 668 -293 632 -910 1960 -1122 2415 -210 450 -320 676 -364 744
-64 99 -149 181 -227 217 -58 27 -96 36 -234 55 -57 8 -72 36 -72 132 0 90 9
118 43 132 12 5 463 8 1034 7 l1012 -2 23 -22z"/>
</g>
</svg>
