<?xml version="1.0" standalone="no"?>
<!DOCTYPE svg PUBLIC "-//W3C//DTD SVG 20010904//EN"
 "http://www.w3.org/TR/2001/REC-SVG-20010904/DTD/svg10.dtd">
<svg version="1.0" xmlns="http://www.w3.org/2000/svg"
 width="1000.000000pt" height="1000.000000pt" viewBox="0 0 1000.000000 1000.000000"
 preserveAspectRatio="xMidYMid meet">
<metadata>
Created by potrace 1.14, written by Peter Selinger 2001-2017
</metadata>
<g transform="translate(0.000000,1000.000000) scale(0.100000,-0.100000)"
fill="#000000" stroke="none">
<path d="M2930 9735 c-588 -66 -1121 -290 -1590 -668 -97 -78 -329 -310 -407
-407 -387 -480 -614 -1031 -672 -1634 -15 -151 -15 -3901 0 -4052 58 -603 285
-1154 672 -1634 78 -97 310 -329 407 -407 472 -380 1011 -606 1598 -668 204
-22 3920 -22 4124 0 587 62 1126 288 1598 668 97 78 329 310 407 407 380 472
606 1011 668 1598 22 204 22 3920 0 4124 -62 587 -288 1126 -668 1598 -78 97
-310 329 -407 407 -472 380 -1011 606 -1598 668 -190 20 -3951 20 -4132 0z
m1886 -765 c596 -47 1114 -188 1649 -450 427 -209 772 -456 1116 -800 207
-207 350 -380 504 -610 124 -187 182 -290 285 -503 130 -272 233 -553 300
-821 24 -95 44 -148 78 -209 157 -278 292 -666 343 -982 26 -168 36 -477 20
-641 -62 -611 -313 -1130 -760 -1574 -249 -248 -515 -438 -851 -609 -212 -108
-342 -162 -565 -236 -363 -121 -675 -181 -1060 -204 -93 -6 -197 -19 -247 -31
-776 -184 -1606 -125 -2323 167 -264 107 -579 293 -805 473 -137 110 -376 348
-478 477 -215 272 -372 565 -478 893 -23 74 -52 162 -63 195 -10 33 -40 113
-66 179 -137 350 -203 786 -177 1169 36 528 173 981 443 1464 45 81 77 149 72
150 -57 19 -100 52 -120 93 -44 85 -32 112 146 340 127 163 130 167 182 305
29 77 92 219 140 315 383 766 974 1239 1741 1394 114 23 321 51 428 59 108 8
428 6 546 -3z"/>
<path d="M4323 8629 c-500 -32 -918 -179 -1258 -444 -134 -105 -341 -321 -411
-430 l-19 -30 30 19 c296 192 680 348 1065 431 69 15 192 47 273 71 407 120
869 174 1242 145 335 -26 611 -79 860 -165 376 -129 739 -318 1060 -553 l60
-44 -50 46 c-70 65 -249 199 -385 288 -723 474 -1633 719 -2467 666z"/>
<path d="M4340 7730 c-72 -6 -106 -16 -225 -65 -333 -139 -797 -394 -1052
-577 -239 -171 -485 -399 -603 -559 -99 -134 -208 -304 -231 -361 -45 -111
-112 -319 -151 -468 l-41 -155 6 -145 c34 -800 345 -1580 878 -2195 102 -118
330 -345 445 -443 252 -215 585 -432 909 -592 l140 -69 143 -12 c206 -17 596
-7 777 21 660 100 1291 379 1754 776 360 308 626 710 780 1179 232 704 224
1428 -23 2059 -83 211 -100 238 -236 361 -247 222 -526 432 -794 594 l-118 72
-28 -26 c-19 -19 -43 -29 -72 -32 -68 -7 -101 20 -151 125 l-42 87 -100 44
c-151 66 -364 143 -520 189 -339 100 -776 174 -1090 187 -77 3 -169 7 -205 9
-36 1 -103 0 -150 -4z"/>
<path d="M8776 4570 c-24 -175 -50 -318 -76 -417 -17 -62 -30 -132 -30 -157 0
-72 -37 -343 -66 -478 -50 -240 -181 -576 -300 -768 -42 -68 -4 -31 75 74 228
300 364 614 426 986 34 204 30 546 -9 750 l-12 65 -8 -55z"/>
<path d="M8338 3966 c-10 -50 -16 -91 -14 -93 11 -11 37 89 34 133 -3 48 -3
47 -20 -40z"/>
<path d="M2030 3993 c0 -45 109 -375 170 -513 123 -279 475 -683 760 -872 83
-55 260 -154 260 -146 0 3 -59 56 -130 118 -406 352 -742 785 -976 1254 -46
93 -84 165 -84 159z"/>
<path d="M7787 3236 c-61 -92 -196 -253 -301 -362 -56 -57 -101 -104 -99 -104
11 0 259 209 289 244 38 43 160 263 152 272 -3 2 -21 -20 -41 -50z"/>
<path d="M8040 2994 c-58 -63 -143 -170 -190 -238 -129 -187 -215 -294 -375
-465 l-60 -65 64 50 c166 127 374 348 490 518 59 87 190 317 179 315 -1 0 -50
-52 -108 -115z"/>
<path d="M2650 2204 c0 -1 53 -43 118 -91 294 -222 637 -392 993 -493 134 -38
369 -91 400 -90 8 1 -49 21 -126 45 -440 138 -883 332 -1227 538 -87 52 -158
93 -158 91z"/>
<path d="M6725 2075 c-248 -115 -711 -255 -1020 -307 l-80 -13 50 -7 c28 -3
134 -7 237 -7 l187 -1 107 46 c192 81 496 243 579 308 28 21 20 19 -60 -19z"/>
</g>
</svg>
