<?xml version="1.0" standalone="no"?>
<!DOCTYPE svg PUBLIC "-//W3C//DTD SVG 20010904//EN"
 "http://www.w3.org/TR/2001/REC-SVG-20010904/DTD/svg10.dtd">
<svg version="1.0" xmlns="http://www.w3.org/2000/svg"
 width="1000.000000pt" height="1000.000000pt" viewBox="0 0 1000.000000 1000.000000"
 preserveAspectRatio="xMidYMid meet">
<metadata>
Created by potrace 1.14, written by Peter Selinger 2001-2017
</metadata>
<g transform="translate(0.000000,1000.000000) scale(0.100000,-0.100000)"
fill="#000000" stroke="none">
<path d="M3039 9746 c-2 -2 -40 -6 -84 -10 -44 -3 -89 -8 -101 -10 -12 -2 -45
-7 -75 -11 -30 -4 -56 -8 -59 -10 -3 -2 -26 -6 -50 -10 -25 -3 -67 -13 -95
-20 -27 -8 -65 -17 -83 -20 -18 -3 -93 -25 -167 -50 -359 -118 -661 -282 -957
-517 -92 -73 -324 -295 -388 -373 -246 -295 -407 -563 -534 -891 -29 -76 -88
-258 -101 -314 -34 -147 -45 -197 -55 -260 -6 -41 -13 -85 -15 -97 -17 -108
-20 -430 -20 -2168 0 -1966 1 -2056 30 -2205 2 -10 6 -33 9 -51 19 -114 51
-245 87 -364 117 -379 308 -728 578 -1055 75 -91 300 -311 401 -392 351 -281
753 -480 1185 -586 76 -19 262 -52 390 -69 77 -10 4052 -11 4125 0 30 4 73 10
95 13 77 11 100 14 155 25 437 84 840 258 1200 519 115 83 125 91 244 196 199
175 457 487 570 689 9 17 32 57 51 90 49 85 132 260 160 335 7 19 19 49 26 65
7 17 13 32 14 35 1 3 14 43 29 90 30 90 71 245 80 295 2 17 10 55 16 85 6 30
13 71 16 90 3 19 6 45 9 57 17 98 20 417 20 2153 0 1713 -3 2057 -19 2148 -2
9 -6 38 -10 63 -9 62 -21 124 -42 219 -46 209 -131 444 -238 659 -370 741
-1027 1295 -1821 1536 -126 38 -368 90 -470 100 -33 4 -71 9 -85 13 -26 7
-4013 15 -4021 8z"/>
</g>
</svg>
