<?xml version="1.0" standalone="no"?>
<!DOCTYPE svg PUBLIC "-//W3C//DTD SVG 20010904//EN"
 "http://www.w3.org/TR/2001/REC-SVG-20010904/DTD/svg10.dtd">
<svg version="1.0" xmlns="http://www.w3.org/2000/svg"
 width="700.000000pt" height="700.000000pt" viewBox="0 0 700.000000 700.000000"
 preserveAspectRatio="xMidYMid meet">
<metadata>
Created by potrace 1.14, written by Peter Selinger 2001-2017
</metadata>
<g transform="translate(0.000000,700.000000) scale(0.100000,-0.100000)"
fill="#000000" stroke="none">
<path d="M1980 6804 c-380 -55 -754 -221 -1039 -459 -413 -345 -666 -798 -748
-1340 -17 -112 -18 -218 -18 -1505 0 -1287 1 -1393 18 -1505 56 -370 192 -700
405 -984 71 -95 243 -274 342 -356 232 -192 526 -341 820 -414 267 -66 208
-64 1600 -68 1283 -4 1534 0 1715 32 347 60 654 195 933 409 114 87 302 277
390 393 216 285 352 615 409 990 17 109 18 223 18 1503 0 1280 -1 1394 -18
1503 -75 498 -281 899 -638 1242 -299 289 -640 461 -1089 552 -78 15 -211 17
-1545 19 -1202 2 -1477 0 -1555 -12z m1395 -529 c315 -17 711 -115 1020 -252
839 -371 1415 -1040 1660 -1931 23 -82 57 -168 104 -265 169 -344 227 -598
218 -942 -5 -204 -26 -330 -83 -504 -159 -486 -533 -887 -1079 -1156 -341
-169 -715 -269 -1085 -290 -58 -4 -168 -19 -245 -35 -799 -163 -1605 16 -2160
482 -330 277 -541 595 -665 1003 -15 50 -43 131 -63 181 -137 340 -167 756
-86 1159 42 209 180 559 289 737 17 26 30 52 30 57 0 5 -14 14 -31 21 -35 15
-69 63 -69 98 0 33 12 52 116 189 78 102 99 138 130 220 106 286 292 574 493
766 301 287 674 439 1146 466 127 8 154 7 360 -4z"/>
<path d="M2991 6039 c-335 -27 -624 -133 -846 -309 -96 -76 -295 -288 -295
-313 0 -4 35 15 78 40 182 109 427 205 657 258 66 15 172 43 235 60 393 112
737 129 1145 60 336 -57 731 -232 1045 -461 53 -39 63 -44 35 -18 -106 97
-306 235 -480 332 -469 260 -1064 393 -1574 351z"/>
<path d="M3010 5410 c-90 -16 -419 -170 -632 -297 -331 -194 -562 -399 -724
-638 -92 -136 -140 -252 -198 -477 -33 -131 -33 -135 -25 -263 49 -734 403
-1391 1009 -1871 131 -103 330 -230 495 -316 l150 -77 135 -12 c397 -34 847
52 1235 235 589 279 948 707 1101 1312 121 479 85 964 -101 1371 -35 76 -46
90 -147 180 -182 161 -380 308 -557 412 l-53 32 -43 -21 c-66 -32 -101 -11
-147 85 -23 49 -25 50 -133 96 -206 87 -445 157 -671 198 -234 42 -598 69
-694 51z"/>
<path d="M6132 3140 c-6 -55 -23 -147 -36 -203 -14 -56 -30 -154 -36 -217 -29
-291 -107 -548 -240 -780 l-31 -55 36 40 c55 62 152 210 201 308 53 104 96
230 125 359 36 162 36 532 1 628 -5 13 -12 -14 -20 -80z"/>
<path d="M5842 2808 c-7 -35 -14 -74 -17 -88 -5 -22 -3 -21 9 5 13 28 32 145
23 145 -2 0 -9 -28 -15 -62z"/>
<path d="M1425 2775 c16 -78 91 -292 129 -367 124 -245 389 -517 640 -657 32
-18 60 -31 62 -29 2 3 -28 30 -66 62 -115 96 -340 334 -435 461 -111 147 -189
271 -272 435 -35 69 -61 112 -58 95z"/>
<path d="M5471 2297 c-39 -63 -137 -183 -221 -271 l-95 -100 63 48 c124 94
174 149 226 246 26 50 46 93 44 95 -2 2 -10 -6 -17 -18z"/>
<path d="M5617 2084 c-43 -46 -100 -117 -126 -157 -62 -94 -158 -215 -240
-301 -75 -79 -56 -69 60 30 93 79 175 170 253 277 55 78 141 225 135 232 -2 2
-39 -35 -82 -81z"/>
<path d="M1850 1547 c0 -3 40 -35 90 -72 235 -175 488 -293 780 -364 192 -47
215 -45 60 7 -334 112 -687 275 -902 416 -16 10 -28 16 -28 13z"/>
<path d="M4615 1418 c-149 -61 -341 -120 -505 -154 -69 -14 -134 -29 -145 -33
-27 -10 207 -23 270 -15 78 10 407 167 500 238 31 24 9 17 -120 -36z"/>
</g>
</svg>
