<?xml version="1.0" standalone="no"?>
<!DOCTYPE svg PUBLIC "-//W3C//DTD SVG 20010904//EN"
 "http://www.w3.org/TR/2001/REC-SVG-20010904/DTD/svg10.dtd">
<svg version="1.0" xmlns="http://www.w3.org/2000/svg"
 width="700.000000pt" height="700.000000pt" viewBox="0 0 700.000000 700.000000"
 preserveAspectRatio="xMidYMid meet">
<metadata>
Created by potrace 1.14, written by Peter Selinger 2001-2017
</metadata>
<g transform="translate(0.000000,700.000000) scale(0.100000,-0.100000)"
fill="#000000" stroke="none">
<path d="M2843 6414 c-248 -30 -464 -94 -661 -195 -403 -206 -721 -583 -916
-1086 -20 -51 -36 -95 -36 -98 0 -3 -49 -69 -110 -147 -109 -142 -118 -159
-111 -211 5 -37 56 -87 88 -87 l25 0 -40 -72 c-114 -209 -162 -313 -223 -480
-135 -374 -169 -806 -93 -1183 28 -139 73 -284 124 -400 10 -22 30 -82 44
-134 200 -698 769 -1258 1517 -1495 115 -37 348 -89 449 -101 30 -3 66 -8 80
-10 245 -36 629 -15 945 52 66 14 147 27 180 28 102 5 262 21 315 31 47 8 65
12 110 19 221 36 527 137 755 248 502 246 875 600 1075 1022 69 146 117 304
155 510 24 130 24 412 0 560 -7 39 -16 94 -21 123 -26 141 -103 350 -199 547
-49 99 -83 184 -100 250 -53 203 -144 443 -240 636 -312 621 -853 1128 -1505
1411 -19 9 -55 25 -80 36 -201 89 -591 191 -830 218 -30 3 -66 8 -80 11 -61
12 -509 11 -617 -3z m627 -247 c14 -3 48 -8 75 -12 28 -3 73 -10 100 -15 28
-5 61 -12 75 -14 234 -43 484 -123 715 -229 170 -77 414 -223 547 -326 25 -20
60 -47 77 -59 17 -13 48 -40 69 -60 21 -21 29 -30 18 -21 -331 253 -799 470
-1126 523 -85 14 -241 35 -304 40 -77 7 -338 8 -376 2 -14 -2 -59 -7 -100 -10
-41 -4 -97 -11 -125 -16 -27 -5 -61 -12 -75 -14 -79 -14 -188 -39 -242 -57
-60 -19 -164 -46 -218 -55 -61 -11 -283 -77 -370 -110 -97 -36 -305 -133 -350
-164 -14 -9 -42 -27 -64 -40 -38 -23 -38 -23 -27 -2 26 49 157 192 257 281
150 134 426 272 634 317 19 4 37 8 40 9 3 1 25 5 50 9 25 5 54 10 65 12 11 2
47 7 80 10 33 3 62 8 64 10 6 5 482 -3 511 -9z m-110 -662 c41 -3 86 -8 100
-10 14 -2 50 -7 80 -10 30 -4 78 -11 105 -16 28 -5 66 -12 85 -15 175 -26 483
-118 699 -209 l111 -47 26 -58 c14 -33 35 -67 46 -77 26 -24 90 -23 117 1 25
23 28 22 176 -72 188 -121 358 -252 538 -415 62 -56 85 -85 108 -136 71 -157
149 -417 164 -547 4 -32 9 -68 12 -79 2 -11 6 -99 8 -195 4 -157 -3 -291 -20
-390 -24 -144 -29 -169 -54 -266 -71 -278 -218 -579 -378 -774 -194 -237 -458
-438 -775 -590 -69 -33 -132 -60 -140 -60 -8 0 -18 -4 -24 -8 -34 -31 -404
-135 -561 -158 -26 -3 -57 -8 -68 -10 -87 -17 -373 -22 -540 -11 -96 7 -105
10 -220 67 -200 100 -376 209 -538 333 -280 212 -534 493 -720 794 -50 82
-177 331 -177 348 0 4 -6 21 -14 38 -51 115 -108 312 -151 527 -1 8 -6 40 -10
70 -4 30 -9 63 -11 73 -14 78 -20 284 -9 332 39 178 121 414 171 500 148 249
375 474 675 671 120 79 338 203 444 253 209 99 277 127 345 146 47 12 265 13
400 0z m2945 -2362 c24 -151 24 -398 0 -523 -25 -131 -65 -278 -95 -345 -5
-11 -18 -42 -30 -69 -32 -76 -115 -211 -193 -313 -38 -51 -72 -93 -74 -93 -3
0 8 21 23 48 106 181 196 418 228 602 2 14 7 41 10 60 12 68 14 86 21 165 9
113 14 143 30 200 22 80 52 252 55 320 2 40 2 40 11 10 4 -16 11 -44 14 -62z
m-340 -444 c-10 -28 -18 -49 -20 -47 -1 2 5 44 14 93 14 79 16 85 19 47 2 -24
-4 -66 -13 -93z m-4544 -150 c92 -165 240 -382 341 -496 133 -150 243 -261
361 -359 48 -41 85 -74 81 -74 -16 0 -163 86 -239 139 -144 100 -332 303 -462
496 -59 89 -118 235 -169 415 -32 115 -30 119 14 25 20 -44 53 -110 73 -146z
m4124 -396 c-31 -60 -64 -115 -73 -123 -31 -29 -147 -125 -192 -159 -31 -24
-15 -4 50 65 109 113 159 173 219 262 24 34 45 62 48 62 2 0 -21 -48 -52 -107z
m235 -130 c-43 -79 -130 -210 -179 -267 -48 -57 -206 -211 -256 -250 -82 -64
-83 -63 -14 10 88 92 106 113 138 154 14 19 32 41 39 48 6 7 41 57 76 110 35
54 100 135 145 182 44 47 81 89 81 94 0 5 3 7 6 3 3 -3 -13 -41 -36 -84z
m-3835 -683 c133 -77 327 -170 495 -238 135 -54 423 -152 448 -152 8 0 13 -3
10 -6 -5 -5 -28 -1 -148 22 -14 3 -50 12 -80 20 -30 8 -65 17 -77 19 -96 21
-344 124 -483 201 -76 42 -228 139 -240 153 -3 3 -31 26 -62 50 -68 51 -77 65
-15 23 23 -16 91 -57 152 -92z m2885 26 c0 -9 -231 -138 -340 -189 -175 -83
-181 -85 -348 -80 -81 2 -155 4 -166 4 -26 0 -14 9 20 15 226 36 535 127 734
215 86 37 100 43 100 35z"/>
</g>
</svg>
