<?xml version="1.0" encoding="UTF-8"?>
<svg width="41px" height="40px" viewBox="0 0 41 40" version="1.1" xmlns="http://www.w3.org/2000/svg" xmlns:xlink="http://www.w3.org/1999/xlink">
    <title>logo</title>
    <g id="Page-1" stroke="none" stroke-width="1" fill="none" fill-rule="evenodd">
        <g id="logo" fill="#7F7F7F" fill-rule="nonzero">
            <path d="M17.667771,40 C17.3254624,40 16.9800793,39.9906524 16.6413578,39.9719572 C14.0350986,39.8296657 11.6081926,39.2059721 9.42776928,38.1174943 C8.33320193,37.5711782 7.29705242,36.89815 6.34852985,36.1176241 C5.37848488,35.3184031 4.5263006,34.4345343 3.81606165,33.4904252 C3.07148936,32.5026939 2.4596385,31.4339501 1.99844437,30.3132749 C1.69456869,29.5737748 1.44398654,28.8072704 1.25335964,28.0345342 C1.1042402,27.7026939 0.966394411,27.3609867 0.842896871,27.0187602 C0.421160467,25.8487504 0.154180314,24.6081142 0.0491305417,23.3311262 C-0.0523321657,22.0930867 0.0035235673,20.8041545 0.215160426,19.499643 C0.416036088,18.2667965 0.75731974,17.0557612 1.22825019,15.8997728 C1.64434977,14.8782863 2.13782748,13.8957481 2.6948475,12.9791626 C2.71893208,12.8327166 2.74455397,12.6862707 2.77120075,12.5408633 C2.68869824,12.5766958 2.60209623,12.5917559 2.53086737,12.5917559 C2.37611111,12.5917559 2.22494193,12.5278806 2.11630509,12.4167478 C2.00766825,12.3066537 1.94515083,12.153976 1.94515083,11.9976631 C1.94515083,11.814346 2.02816577,11.6865952 2.10195683,11.5957156 C2.11323046,11.581175 2.1245041,11.5671535 2.13577773,11.5531321 C2.22289218,11.4373255 2.30898175,11.3204804 2.39558375,11.2041545 C2.59543454,10.9351509 2.80194702,10.6567997 3.01204657,10.3877962 C3.14271823,10.2200584 3.28517597,10.0440117 3.4476188,9.85082766 C3.76686761,8.86880882 4.15990749,7.93404741 4.6154648,7.07198962 C4.91062904,6.51321 5.22987788,5.98455047 5.56347497,5.50055177 C5.95958948,4.9261928 6.33879353,4.44167478 6.7236344,4.02051282 C7.59990323,3.06134372 8.55355021,2.28341448 9.55792853,1.7090555 C10.651471,1.08276534 11.8116305,0.635637783 13.0056108,0.38013632 C14.1816558,0.127750731 15.3971585,0 16.6177856,0 C16.6751787,0 16.7320593,0.000519312141 16.7894524,0.00103862428 C19.3229454,0.0259655958 21.9025579,0.503732555 24.2495236,1.38396624 C25.5111457,1.8570594 26.6231359,2.37689062 27.6485243,2.9730607 C28.7200319,3.59519637 29.7259475,4.29522882 30.6391119,5.05394353 C31.6132563,5.86303149 32.4890128,6.72924375 33.242809,7.62713406 C34.0504111,8.58838043 34.7626998,9.60155794 35.3607149,10.6370659 C35.9618045,11.6782862 36.4952524,12.8186952 36.9461978,14.027134 C37.3289889,15.0522557 37.6323522,16.0836092 37.8491134,17.0936709 L37.8711482,17.1315807 C38.1955214,17.7007465 38.4686508,18.2434275 38.7059096,18.7907822 C38.995437,19.4565401 39.2086111,20.0215514 39.3772032,20.5683869 C39.5693675,21.1925998 39.7154122,21.8136969 39.8122631,22.4155794 C39.9239745,23.1078221 39.9849546,23.7356702 39.9972531,24.3359948 C40.022875,25.6160987 39.8691436,26.8801038 39.5406709,28.0932165 C39.2091236,29.317754 38.7084718,30.4643947 38.0535761,31.5014606 C37.4125163,32.5167154 36.6438594,33.4473223 35.7691278,34.2683544 C34.9097695,35.0743265 33.9248638,35.8122688 32.8420825,36.4619279 C31.7854355,37.0960078 30.6565348,37.6360922 29.4871515,38.0681597 C27.3548973,38.854398 25.10427,39.2776372 22.7967621,39.3269718 C21.0959806,39.7725414 19.3706022,40 17.667771,40 Z M4.77585787,32.8999676 C5.50608192,33.8508277 6.38747513,34.7378124 7.39441562,35.5344369 C8.44593827,36.348718 9.60507278,37.0321324 10.8390233,37.5654658 C12.2261928,38.1496917 13.718412,38.5568322 15.2721237,38.7749432 C16.0781886,38.8808829 16.9042385,38.934372 17.7256764,38.934372 C17.7748705,38.934372 17.8240646,38.934372 17.873771,38.9338526 C16.7807409,38.7432652 15.6918104,38.4846478 14.618253,38.1605972 C13.4124865,37.7960403 12.2292674,37.3618955 11.1019039,36.8706264 C9.93303306,36.3617007 8.82719206,35.7904577 7.81563964,35.1724765 C6.75489312,34.5238559 5.76742526,33.7885103 4.88090764,32.9861733 C4.83786285,32.9472249 4.79481807,32.9077572 4.75228572,32.8682895 C4.7599723,32.8786757 4.76765886,32.889062 4.77585787,32.8999676 Z M14.5413872,36.9957806 C15.9434174,37.4429081 17.3500594,37.7768258 18.7485025,37.9944174 C18.393383,37.890555 18.0398009,37.7768258 17.6887809,37.6532295 C17.3628704,37.5384616 17.035935,37.4164233 16.7166862,37.2897111 C15.9782631,37.2247972 15.2506013,37.1266472 14.5413872,36.9957806 Z M20.7137019,37.2860759 C21.0780453,37.3613762 21.4398264,37.4252515 21.7969957,37.4766635 C22.4933988,37.5696203 23.1349711,37.6179163 23.7565583,37.6236287 C23.8001155,37.624148 23.8436727,37.624148 23.8867175,37.624148 C24.1711205,37.624148 24.4611604,37.6148004 24.7486381,37.5955859 C24.9377276,37.5218435 25.1278421,37.4449854 25.3133446,37.3665693 C26.8429718,36.7070432 28.2142557,35.9119766 29.3877385,35.0047388 L29.3923505,35.0011036 L29.3944002,34.9990263 C29.7992262,34.6801688 30.1640819,34.3665044 30.5017786,34.0486855 C29.693664,34.5529374 28.8368677,35.0062967 27.9467631,35.4009737 C25.6331059,36.4271341 23.1995382,37.0612139 20.7137019,37.2860759 Z M33.881819,31.3898085 C32.9758288,32.9228173 31.8489778,34.2657579 30.5335497,35.3812399 C30.0339228,35.806037 29.5604301,36.1679974 29.0869375,36.4884128 C29.0659275,36.5029536 29.0444051,36.516975 29.0228827,36.5315158 C30.0298232,36.0765985 30.9829577,35.5043168 31.8561519,34.8297306 C32.718585,34.1483934 33.4805802,33.3824083 34.1195902,32.5551445 C34.7001824,31.7829276 35.1869984,30.9432003 35.5646652,30.06037 C35.727108,29.6662123 35.862904,29.2865953 35.9756404,28.9126907 C35.3914611,29.7659202 34.719655,30.5666991 33.9750828,31.298929 C33.943824,31.3295683 33.9125653,31.3596884 33.881819,31.3898085 Z M16.012084,35.7047712 C16.8027758,35.8049984 17.597567,35.8558909 18.3754477,35.8558909 C19.1471792,35.8558909 19.9173734,35.806037 20.6650203,35.7068484 L20.6865427,35.7037326 C22.3114833,35.4721195 23.9256628,35.0203181 25.4839865,34.360792 C26.9111261,33.7438494 28.2209174,32.9742292 29.3764649,32.0737423 C29.8612311,31.6889322 30.3070521,31.2911393 30.7011169,30.8923077 C31.0972314,30.4908796 31.4784852,30.0520611 31.835142,29.5877962 C32.5223212,28.6738072 33.114187,27.6372606 33.5933165,26.5072379 L33.5933165,26.5072379 C34.1329136,25.1980526 34.5105803,23.7798118 34.7160679,22.2925025 C34.8185556,21.4938007 34.8697994,20.7662448 34.8742433,20.0698474 C34.8774859,19.3277508 34.8318789,18.578903 34.7375903,17.8440766 C34.5607993,16.5961701 34.2169534,15.344109 33.7163016,14.126842 C33.5917792,13.8349887 33.4554707,13.5400195 33.3114756,13.2523207 C32.5587043,12.5060694 31.7388037,11.7831873 30.873296,11.1039273 C29.8274102,10.2938007 28.7461662,9.5740344 27.6526237,8.96072705 C27.6526237,9.07134046 27.6111163,9.17572218 27.5306635,9.25829278 C27.4496983,9.33930545 27.3390117,9.38500488 27.2257629,9.38500488 C27.1478724,9.38500488 27.072544,9.36319377 27.0084893,9.32216811 C26.8931907,9.2479065 26.8306733,9.13625444 26.7891659,9.04693278 C26.7527827,8.96851675 26.7204991,8.88958129 26.6892405,8.81376175 C26.6272355,8.66939303 26.5667678,8.51931195 26.5088623,8.37494323 L26.5006633,8.35520932 C26.1880762,8.20201232 25.8698522,8.05556639 25.5547029,7.91898736 C24.5267524,7.48432325 23.4859911,7.1280753 22.4616277,6.86062967 C21.4864583,6.60616683 20.4708063,6.40675106 19.3562539,6.24991886 C18.2463133,6.10191497 17.2286117,6.02973061 16.2467806,6.02973061 C15.9664771,6.02973061 15.6871984,6.03596235 15.4156063,6.04790653 C15.0727853,6.1730607 14.7186908,6.3127556 14.3635713,6.46387537 L14.3348748,6.47633885 C13.2715661,6.93644921 12.2349042,7.45472251 11.2535856,8.0171373 C10.1902769,8.62629016 9.27455033,9.23180788 8.45362484,9.86952292 C7.58555494,10.5565725 6.78563939,11.3209997 6.07642532,12.1404739 C5.61369388,12.766764 5.18119628,13.4138267 4.78969369,14.0629666 C4.320813,15.2288218 3.95083283,16.4497241 3.69000193,17.6939955 C3.70691238,18.4797144 3.76481787,19.2612788 3.86218107,20.0173969 C4.09585276,21.7072379 4.53501205,23.3451477 5.16787289,24.8833496 C5.79458447,26.367543 6.60577368,27.774359 7.57838084,29.0622525 C8.65296319,30.4602402 9.91561015,31.7382668 11.3304513,32.8604998 C12.7335062,33.9557287 14.3092529,34.9128205 16.012084,35.7047712 Z M34.8190679,26.4781565 C34.633053,26.9367088 34.4285903,27.3817591 34.2056798,27.812788 C33.6312369,28.9241156 32.9420079,29.9383317 32.1564406,30.8268744 C31.3821469,31.7029536 30.4705198,32.517754 29.4482062,33.2494644 C28.7051712,33.7817592 27.9180666,34.2605647 27.0991908,34.6796495 C27.1688823,34.6510873 27.2380614,34.6220059 27.307753,34.5929244 C27.320564,34.5872119 27.3328625,34.5820189 27.3456734,34.5768257 C28.1732607,34.2185005 28.9147583,33.8451153 29.6132112,33.4353781 C30.3434352,33.0069458 31.0546991,32.524505 31.7280425,32.0010386 C32.1969232,31.6312886 32.6422317,31.2495943 33.0506447,30.8668614 C33.0916398,30.7977929 33.1321223,30.7282051 33.1715801,30.6586173 C33.4872418,30.1029536 33.7793314,29.5073028 34.0391375,28.8893217 C34.3532619,28.1243753 34.6135803,27.3184032 34.8190679,26.4781565 Z M4.79225589,28.9692957 C4.88654446,29.1157416 4.98185793,29.2616683 5.07819626,29.4065563 C5.34158935,29.8059072 5.57013665,30.1315157 5.79765909,30.4306394 C6.09948502,30.8175268 6.44179355,31.2080494 6.84252,31.6219409 C7.24734593,32.0410256 7.63526144,32.3967543 8.02881381,32.7088608 C8.77697311,33.2842584 9.67937628,33.7911068 10.8661825,34.3010711 C11.142899,34.4179163 11.4237149,34.5285297 11.7070931,34.6334307 C11.5123667,34.4999675 11.3217398,34.3649465 11.1357249,34.2283674 C9.0941722,32.7311912 7.36161958,30.9624148 5.98623624,28.9703344 C4.83991261,27.3100941 3.93392237,25.4499188 3.32822076,23.5243103 C3.3517929,23.8031808 3.38100186,24.0810127 3.41584764,24.3562479 C3.59725066,25.6804934 3.94570845,26.9813697 4.45097223,28.2209673 C4.55550957,28.4697176 4.6708081,28.7221032 4.79225589,28.9692957 Z M37.7066556,25.3050308 C37.6779591,25.8622526 37.6262028,26.4116845 37.5534367,26.9387861 C37.4545362,27.65284 37.3412874,28.2370659 37.1972923,28.7781889 C37.0430485,29.3618955 36.8385858,29.953911 36.5900534,30.5381369 C36.114511,31.6530997 35.4744761,32.6984746 34.6873715,33.6467381 C34.414242,33.9754625 34.1231773,34.2932814 33.8146897,34.5991561 C33.9335753,34.5113924 34.0509236,34.4220708 34.1672469,34.3317105 L34.1672469,34.3317105 C35.0875855,33.6 35.9013369,32.7779292 36.5869788,31.8862707 C37.1860187,31.0891269 37.6830835,30.2312237 38.0633124,29.3369686 C38.4368797,28.4209023 38.6997603,27.4321324 38.8427305,26.4007789 C38.9759644,25.3450179 38.9764768,24.2757546 38.8427305,23.2262252 L38.842218,23.2231094 L38.8417056,23.2194742 L38.8401683,23.2096073 L38.8401683,23.2070107 C38.7525414,22.5869523 38.6290438,21.9938981 38.4727503,21.4434274 C38.4179194,21.2492048 38.3569394,21.0518663 38.2903224,20.8524505 C38.3149195,22.3890945 38.1324915,23.838494 37.744576,25.1767608 C37.7317651,25.2198637 37.7194666,25.2624473 37.7066556,25.3050308 Z M3.92264874,30.2540733 C4.21422592,30.6336904 4.51451453,30.9904577 4.82095241,31.3197014 C4.65184789,31.0657578 4.49350458,30.8164882 4.34387271,30.568257 C3.99336517,29.9876664 3.7125492,29.4538137 3.4855392,28.936579 C3.44351929,28.8405063 3.40201182,28.7444337 3.36152922,28.6478416 C3.32309638,28.583447 3.28466354,28.5195716 3.24674313,28.4546576 C2.93876794,27.9280753 2.65282759,27.3692957 2.39660863,26.7938981 C2.26286233,26.4932165 2.14397674,26.2065563 2.03841453,25.9297631 C2.04661353,25.9988316 2.05481254,26.0684193 2.06352398,26.1369685 C2.12809117,26.6033106 2.21264342,27.0717299 2.31564344,27.5266472 C2.73789228,28.4780266 3.27851428,29.3956508 3.92264874,30.2540733 Z M36.4311977,21.7134696 C36.4276106,21.8817267 36.4219738,22.0489452 36.4147997,22.2156443 C36.3558693,23.54716 36.1980384,24.8189549 35.9469438,25.9957157 C35.7880881,26.7424862 35.5887497,27.4695229 35.351491,28.1700747 C35.7937249,27.5017203 36.1498692,26.8427134 36.4311977,26.1733203 L36.4347847,26.1650113 C36.4588693,26.1052905 36.4824415,26.0455697 36.5060136,25.9853295 C36.6192624,24.6465433 36.5941529,23.2116845 36.4311977,21.7134696 Z M36.9405609,17.8767932 C37.0584217,18.3343071 37.1624466,18.7985719 37.2521232,19.2664719 C37.2603222,19.3085362 37.2680087,19.3506004 37.2762078,19.393184 C37.262372,19.2654333 37.2475113,19.1371632 37.2311132,19.0088932 C37.1916555,18.722233 37.1445112,18.4303797 37.0917301,18.1421616 C37.0415112,18.05284 36.9912923,17.964557 36.9405609,17.8767932 Z M35.2121079,13.4465433 C35.3929984,13.6521908 35.5713269,13.8619928 35.7424811,14.070237 C35.8434313,14.1933139 35.9433568,14.3169101 36.0412324,14.4410257 C35.9756404,14.2701721 35.9079986,14.0998377 35.8377945,13.930542 C35.4811378,13.0809477 35.0886103,12.2817267 34.6725107,11.5572866 C34.2446251,10.8146706 33.7593463,10.0839987 33.229998,9.38500488 C32.2261321,8.08153199 31.0398384,6.88451802 29.70545,5.82823759 C28.3013701,4.73612463 26.7461211,3.81590393 25.0847973,3.09354106 C23.2922895,2.33274911 21.4198414,1.80876339 19.5217714,1.53768257 C18.5824727,1.41200909 17.6585471,1.34813372 16.7781787,1.34813372 C16.0402681,1.34813372 15.3156809,1.39279455 14.6249146,1.48159689 C14.0099891,1.56832197 13.4765412,1.67010711 12.9974118,1.79266472 C12.4603768,1.92976307 11.9325658,2.10580981 11.4293518,2.31613113 C10.5986899,2.67861084 9.82695844,3.13041221 9.13977914,3.65803311 C8.39469447,4.25160663 7.7100774,4.94644596 7.10898772,5.72125934 C6.76155481,6.18240831 6.43564429,6.6741967 6.1343308,7.19039273 C6.52788312,6.87724765 6.85686826,6.63732555 7.18175391,6.42544629 C7.58299278,6.16371308 7.98679388,5.9248296 8.38239596,5.7155469 C9.22945578,5.26790003 10.1113615,4.8960727 11.0035159,4.61045115 C11.7711478,4.36533593 12.570551,4.16540085 13.3791781,4.01635833 C14.9574868,3.47835119 16.5732036,3.15533918 18.1817462,3.05563129 C18.5204677,3.03485881 18.8653384,3.02395326 19.206622,3.02395326 C20.0224232,3.02395326 20.8505229,3.08419344 21.6668364,3.20363518 C21.7078315,3.20882831 21.752926,3.21454073 21.7980205,3.22077247 C22.5354187,3.32048036 23.1365084,3.43680624 23.6889164,3.58688738 C24.5375136,3.81694256 25.3861108,4.1285297 26.2116483,4.5123012 C27.1811808,4.93398248 28.0979323,5.42369361 28.937818,5.96897112 C30.0523705,6.6918533 30.9860323,7.43706589 31.7920972,8.24719247 C32.702187,9.16170077 33.4559831,10.1437196 34.0329882,11.1657254 C34.3368639,11.7042519 34.6171674,12.2723791 34.8656998,12.8550471 C34.9845854,13.049789 35.1014213,13.2481662 35.2121079,13.4465433 Z" id="Shape"></path>
            <path d="M17.0690349,0.411163078 C17.1262271,0.411163078 17.1839393,0.411677031 17.2411316,0.412190985 C19.7887878,0.436346816 22.3494421,0.893765741 24.7400794,1.76800124 C25.9166806,2.19869456 27.0683252,2.70853677 28.1575781,3.32579534 C29.2130357,3.92352367 30.2227394,4.60348461 31.1632925,5.36619212 C32.1059252,6.12992753 32.989286,6.96972812 33.7790594,7.8871357 C34.5714324,8.80762711 35.2894554,9.79339052 35.9066122,10.8367169 C36.5336476,11.8964897 37.0608563,13.0127975 37.5001971,14.1604564 C37.8792259,15.1503315 38.1891041,16.1638485 38.4147537,17.1979236 C38.4277518,17.2195097 38.4402302,17.2416097 38.4532284,17.2631958 C38.7610269,17.7894845 39.0428288,18.3286221 39.2897955,18.8852341 C39.5424814,19.4526392 39.77541,20.0308373 39.9625847,20.6229121 C40.1481997,21.2124171 40.2968996,21.8127152 40.397246,22.4227784 C40.4996722,23.0415789 40.5688228,23.6670607 40.5823411,24.2945984 C40.6072977,25.5239759 40.4559981,26.7672303 40.1263626,27.9539497 C39.8014065,29.1247366 39.3059133,30.2472118 38.6430028,31.2710079 C38.0019293,32.261397 37.2319133,33.1700673 36.3589511,33.9692656 C35.4662316,34.7864521 34.4710859,35.5018759 33.4249872,36.113995 C32.3544517,36.7405047 31.2241242,37.2662795 30.0558419,37.6872077 C27.8976132,38.463278 25.6068024,38.875983 23.3102724,38.9212109 C21.6225802,39.3570437 19.8782157,39.5888369 18.134371,39.5888369 C17.7906974,39.5888369 17.4475437,39.5795858 17.1043901,39.5615973 C14.6024878,39.4284833 12.1193029,38.8441178 9.86644701,37.7473403 C8.76783532,37.2123144 7.73213514,36.5559953 6.78118348,35.7927738 C5.83907065,35.0357198 4.98222629,34.1825564 4.24548573,33.2276301 C3.50822525,32.2737319 2.89574792,31.2370869 2.42781108,30.1290024 C2.12105249,29.4012438 1.86940645,28.6503572 1.67703242,27.884566 C1.52469298,27.5546076 1.38483186,27.2184818 1.25900884,26.8772164 C0.831106602,25.7192784 0.569061972,24.509945 0.465595938,23.2810813 C0.360570114,22.0316596 0.426081272,20.7760703 0.63197348,19.5394973 C0.833186323,18.3358174 1.17582007,17.149098 1.64687649,16.0214833 C2.06593993,15.0187593 2.56351276,14.0484144 3.14115479,13.1258673 C3.2040663,12.750167 3.27581661,12.3760087 3.35796553,12.00442 C3.25397957,12.1190317 3.1499936,12.2341574 3.04912722,12.3513388 C2.98569578,12.4253482 2.87131122,12.4633808 2.77616406,12.4633808 C2.67425782,12.4633808 2.57495122,12.4227784 2.5032009,12.3513388 C2.43093066,12.2798993 2.3898562,12.182248 2.3898562,12.0815131 C2.3898562,11.9720409 2.43561002,11.893406 2.5032009,11.8116873 C2.51463936,11.7967827 2.52659775,11.7829059 2.53855613,11.7685152 C2.83387627,11.3835638 3.12451704,10.9939867 3.42711619,10.6157167 C3.57789584,10.4270956 3.73283493,10.2420723 3.8908936,10.0591047 C4.20441128,9.11085985 4.5953985,8.18728481 5.07425387,7.30328416 C5.36073522,6.77442566 5.67581269,6.26047181 6.02312581,5.76861798 C6.37875781,5.26545716 6.76038629,4.7761731 7.18256931,4.32543558 C8.00457835,3.44811636 8.95137055,2.66690651 10.0078679,2.07740145 C11.0799632,1.47864521 12.2409666,1.03613096 13.4466838,0.78429357 C14.6368031,0.533998047 15.8518791,0.411163078 17.0690349,0.411163078 M5.72468609,8.17289407 C5.94097689,7.98375904 6.16038728,7.79924963 6.38603682,7.62090763 C6.77962369,7.30945161 7.18204938,7.00878861 7.60683205,6.73896284 C7.9967794,6.49072313 8.39712539,6.25790204 8.80890979,6.0456391 C9.65015621,5.61186205 10.5293575,5.24849668 11.4345554,4.96582207 C12.2222491,4.72066608 13.0234609,4.52639153 13.8345514,4.38145655 C15.3953807,3.86133525 17.0206813,3.53600247 18.6683389,3.43629542 C19.0104528,3.41573727 19.3525666,3.40545819 19.6952003,3.40545819 C20.520329,3.40545819 21.3449377,3.46507684 22.1617474,3.58123041 C22.2069813,3.5868839 22.2522152,3.59253739 22.2969292,3.59819088 C22.9343631,3.68247931 23.5671177,3.79092358 24.1894737,3.95538881 C25.0577565,4.18512618 25.9031624,4.49041476 26.7184124,4.86097548 C27.6678042,5.26340135 28.5865202,5.73675284 29.4563628,6.28771136 C30.4795847,6.93477926 31.454973,7.66921933 32.3180566,8.51518733 C33.1847796,9.36475304 33.9511561,10.31197 34.5573943,11.3594079 C34.8688323,11.8980316 35.1490744,12.4546436 35.3981208,13.0251324 C35.5249837,13.2255744 35.6476871,13.4285861 35.7651913,13.6341676 C35.9513261,13.8407771 36.1343414,14.0499563 36.3137172,14.2627332 C36.700025,14.7222079 37.070735,15.1945316 37.4216877,15.6812459 C37.2282737,15.0835175 37.0078235,14.4940124 36.7624167,13.9137585 C36.4125039,13.1001696 36.0178772,12.305083 35.5676179,11.5408336 C35.1220381,10.7863494 34.6270649,10.0621884 34.0894575,9.36886467 C33.0381593,8.03772422 31.8220435,6.85049082 30.4764651,5.8117901 C29.0217015,4.70781724 27.4270767,3.79246544 25.7419842,3.07858354 C23.9170305,2.32307139 22.0031688,1.7972966 20.0445932,1.52387316 C19.1144388,1.40258005 18.1728458,1.33422419 17.2317729,1.33422419 C16.4924326,1.33422419 15.7530925,1.3763684 15.0205113,1.46785219 C14.4579473,1.54494527 13.8959032,1.6425965 13.3442576,1.78033613 C12.7910523,1.91807576 12.2518851,2.09282007 11.7246861,2.30765277 C10.8829098,2.66587861 10.0863773,3.11456031 9.355356,3.66192116 C8.57442147,4.2683867 7.87095636,4.96890579 7.25691928,5.74086447 C6.66939858,6.50305802 6.15986735,7.31870278 5.72468609,8.17289407 M16.1653968,5.08485165 C16.2808212,5.08114795 16.3967655,5.07892573 16.51219,5.07892573 C16.5350669,5.07892573 16.5584637,5.07892573 16.5813407,5.07892573 C16.6260546,5.05966647 16.6712885,5.04114795 16.7165225,5.02262943 C16.549625,5.03374054 16.3832474,5.04781461 16.2168698,5.06411091 C16.2116706,5.06633313 16.2059513,5.06855536 16.2007521,5.07077758 C16.1887936,5.07522202 16.1773552,5.08040721 16.1653968,5.08485165 M26.4808045,6.99593976 C26.4033349,6.90651179 26.3232657,6.82016755 26.239557,6.73742098 C24.3542915,6.00246698 22.3858372,5.45305032 20.3783882,5.17808501 C20.1324613,5.14673382 19.8860146,5.11898032 19.6390479,5.09482448 C19.4835889,5.10921519 19.3281299,5.12617567 19.1731908,5.14570592 C19.1040401,5.15495708 19.0348895,5.16523616 18.9657389,5.17551524 C19.438875,5.22074318 19.9114911,5.27830601 20.3825476,5.34820373 C21.6345386,5.53322712 22.8813303,5.78249473 24.0932867,6.14740196 C24.9022975,6.39050213 25.7009097,6.67214884 26.4808045,6.99593976 M20.4581329,5.20060321 C20.4332844,5.19615876 20.408436,5.19245506 20.3835874,5.18801061 C20.408436,5.19245506 20.4332844,5.1968995 20.4581329,5.20060321 M26.6066274,5.92229018 C26.343543,5.79328776 26.0773389,5.6714807 25.8074953,5.55686899 C25.4908581,5.42735262 25.1700614,5.30657347 24.8451052,5.1971013 C25.046838,5.28344555 25.2438914,5.37904096 25.4357455,5.48491545 C25.7752597,5.60312484 26.1121742,5.72801562 26.447529,5.85958781 C26.5005618,5.88014596 26.5535946,5.90121807 26.6066274,5.92229018 M14.7012744,6.41414401 C14.7069936,6.41157424 14.7132328,6.40900447 14.7189521,6.4064347 C14.7075136,6.41106029 14.6965951,6.41568587 14.6851566,6.42082541 C14.6700787,6.42699286 14.6544808,6.43367426 14.6394028,6.4398417 C14.6498014,6.43573007 14.6602,6.43110449 14.6705986,6.42699286 C13.5959036,6.88030015 12.541486,7.39271213 11.5234634,7.96217296 C10.5303974,8.51672919 9.56436781,9.12473659 8.65813012,9.81086496 C7.77112986,10.4954515 6.95068061,11.2571311 6.21082047,12.0923061 C5.73716441,12.717274 5.29210448,13.3643419 4.88083998,14.031454 C4.39106608,15.2161176 4.01047745,16.4460092 3.7427136,17.6985147 C3.75883142,18.4828082 3.81654363,19.2655599 3.91948973,20.0436861 C4.15657773,21.7166059 4.6005978,23.352521 5.25830904,24.9123709 C5.90354195,26.402837 6.7343898,27.806445 7.7310953,29.0938993 C8.84894435,30.511898 10.1430497,31.781878 11.5749364,32.8899624 C13.0614158,34.0211749 14.6903559,34.9714756 16.3972855,35.7434342 C17.2120155,35.845711 18.0324648,35.8986483 18.8523941,35.8986483 C19.6380081,35.8986483 20.4236221,35.8498227 21.2029968,35.7496017 C21.1951979,35.7506296 21.1879189,35.7516575 21.1801199,35.7526854 C21.1920783,35.7511436 21.2040367,35.7496017 21.2159951,35.7475459 C21.2295133,35.746004 21.2430314,35.7439482 21.2560297,35.7424063 C21.2456311,35.7439482 21.2352325,35.7449761 21.224314,35.7465179 C22.9166855,35.511641 24.5679827,35.0542221 26.1444098,34.4035566 C27.5664179,33.8037724 28.914076,33.0456905 30.1405905,32.1133782 C30.6173661,31.7443593 31.0764641,31.3496428 31.5048863,30.9266588 C31.9218701,30.5144678 32.3107775,30.0760652 32.6726487,29.6165904 C33.426027,28.6395641 34.0369445,27.5669425 34.5209992,26.4357301 C34.5085208,26.4639976 34.4965625,26.492265 34.4840842,26.5205324 C35.0554871,25.1683199 35.4319162,23.7487793 35.6372885,22.2984016 C35.7339955,21.5598499 35.7948273,20.8151308 35.8000482,20.0709256 C35.803666,19.3251786 35.7568724,18.5799456 35.6596455,17.8403659 C35.4729907,16.5554813 35.1137192,15.3060595 34.6088673,14.108547 C34.4742055,13.8001747 34.3301849,13.496942 34.1757658,13.1988487 C33.3818329,12.4284319 32.5390267,11.7068407 31.6593055,11.0335612 C30.4723057,10.1361978 29.2125157,9.32774837 27.8882545,8.641106 C27.9111314,8.70021074 27.9345282,8.75982933 27.957925,8.81893407 C27.9802821,8.86518993 28.0062785,8.90990393 28.0275957,8.9566737 C28.0702299,9.04867141 28.0686701,9.14940637 27.9927604,9.22495763 C27.9506461,9.26658785 27.8908541,9.28971578 27.8310622,9.28971578 C27.7925874,9.28971578 27.7546325,9.27995067 27.721357,9.25939252 C27.6522063,9.21622037 27.610612,9.14478081 27.5762966,9.07334119 C27.5414613,9.00035978 27.5102655,8.92583644 27.4785498,8.85131319 C27.4021201,8.67708281 27.3303698,8.50131059 27.2575796,8.3260523 C26.9149459,8.16107311 26.5676327,8.00380326 26.2166801,7.85578452 C25.1882589,7.43125867 24.1286419,7.07354679 23.0487477,6.79858149 C22.0042087,6.53286735 20.942512,6.33602302 19.8745762,6.18954618 C18.8217183,6.0523205 17.7558621,5.96957393 16.6910459,5.96957393 C16.3962457,5.96957393 16.1014455,5.97574138 15.8066452,5.98910418 C15.4354154,6.12067636 15.0662652,6.26355553 14.7012744,6.41414401 M10.7945217,7.58955644 C11.184989,7.36650049 11.5811756,7.15269569 11.9815215,6.94865601 C12.4312608,6.71891864 12.8861994,6.49843244 13.3458174,6.28873927 C13.1555231,6.32882767 12.9667886,6.37354166 12.7790939,6.42390913 C12.7432187,6.43367426 12.7073436,6.44343938 12.6719884,6.4532045 C12.023116,6.79344195 11.3955606,7.17171198 10.7945217,7.58955644 M30.5258584,9.16122733 C30.418233,9.07591096 30.3100876,8.99110859 30.2014222,8.90733415 C29.6830522,8.51570126 29.1449248,8.14925222 28.5792412,7.82648919 C28.1399005,7.57516578 27.6860018,7.35210978 27.2237842,7.14601429 C27.2487408,7.18661664 27.2726575,7.2282469 27.2955345,7.27039112 C27.3152918,7.30688184 27.3350492,7.34388652 27.3542865,7.38089119 C27.4431946,7.42252148 27.5315826,7.4641517 27.6199707,7.50680985 C28.6244751,7.99301022 29.5962239,8.54756644 30.5258584,9.16122733 M4.58240025,11.0885542 C4.91775499,10.6635144 5.26662792,10.2497816 5.62693929,9.8473557 C6.162467,9.24911341 6.72815065,8.67862467 7.32814966,8.14462659 C7.27979619,8.18060341 7.23144271,8.21658015 7.18308924,8.25255689 C6.42711128,8.83795037 5.71012806,9.47885081 5.05241681,10.1701187 C4.9598693,10.267256 4.86784172,10.3643933 4.77633408,10.4625584 C4.70822327,10.6701959 4.64375197,10.8788611 4.58240025,11.0885542 M3.9782418,13.8680167 C4.00007886,13.831012 4.02139598,13.7945213 4.04375297,13.7575166 C4.17477528,13.4357815 4.31463639,13.117644 4.46177654,12.8025903 C4.32139548,13.0040602 4.18465395,13.2075859 4.05103198,13.4136815 C4.02503549,13.5652979 4.00111872,13.7164003 3.9782418,13.8680167 M1.24913018,22.0953899 C1.33959796,21.0823868 1.50805522,20.0745233 1.76698028,19.0913296 C1.84289003,18.8019736 1.92659873,18.5141594 2.01654659,18.2284011 C2.07737838,18.006373 2.14496925,17.7864008 2.21931922,17.5689983 C2.39921494,17.0396259 2.60666694,16.5200185 2.83855564,16.0117181 C2.84583465,15.8405715 2.85571332,15.6694249 2.86663185,15.4982782 C2.73820918,15.7603947 2.61602567,16.025081 2.50008132,16.2933649 C1.9557148,17.5926401 1.56940695,18.9510202 1.3749532,20.3443491 C1.3000833,20.9251169 1.25380954,21.5099964 1.24913018,22.0953899 M2.47567628,16.3787459 C2.488349,16.3540546 2.50027628,16.3293632 2.51220355,16.3046719 C2.49953082,16.3293632 2.48760355,16.3540546 2.47567628,16.3787459 M38.2494159,22.7753507 C38.3851176,21.5177057 38.3554816,20.2477258 38.189624,18.9936784 C38.1469897,18.6914735 38.0970765,18.3902965 38.0398842,18.0911754 C37.9442172,17.9220846 37.8454305,17.7545356 37.7435242,17.5885285 C37.5282733,17.2395539 37.3031437,16.8967467 37.0686553,16.5601069 C37.374894,17.4600401 37.6182212,18.3820733 37.8007165,19.3138716 C38.0242863,20.4553631 38.182865,21.6138151 38.2494159,22.7753507 M35.3242908,29.420774 C35.4506337,29.2722413 35.574377,29.1216529 35.6944808,28.9679807 C35.6804427,28.9849412 35.6669246,29.0029296 35.6523665,29.0209179 C36.3313949,28.1456545 36.9251547,27.2076887 37.3634555,26.1905741 C37.3582563,26.202909 37.3530569,26.2157579 37.3478576,26.2280927 C37.3540968,26.213702 37.3603359,26.1987973 37.3660552,26.1844067 C37.3686548,26.1787531 37.3712545,26.1725857 37.3733342,26.1669322 C37.3712545,26.1715578 37.3691748,26.1756694 37.367615,26.180295 C37.3962111,26.1109113 37.4242873,26.0415275 37.4518436,25.9716298 C37.5927446,24.3881379 37.5277533,22.7881996 37.322901,21.2129311 C37.2038371,20.3428072 37.0431788,19.477309 36.8315674,18.6246595 C36.9579103,19.8072673 37.0005445,20.9960425 36.9475117,22.1843039 C36.8908393,23.4306419 36.7442191,24.6713265 36.4769752,25.890939 C36.2138907,27.0961607 35.8379814,28.2710593 35.3331295,29.3991879 C35.3305299,29.4068973 35.3274103,29.4135787 35.3242908,29.420774 M2.61550575,24.0186051 C2.5869096,23.7811584 2.5624729,23.5426839 2.54219564,23.3042093 C2.43664989,22.0352573 2.44808834,20.7555121 2.59054911,19.4896439 C2.61290609,19.2907437 2.63786273,19.0918436 2.66593894,18.8934573 C2.63942252,18.9828853 2.61342603,19.0723133 2.58846939,19.1622553 C2.50736035,19.454695 2.43405024,19.7486766 2.36801915,20.0442 C2.2572741,20.9811379 2.27547164,21.9221874 2.39661529,22.8580973 C2.45224778,23.2492162 2.52503796,23.6362235 2.61550575,24.0186051 M31.5615586,36.4161999 C32.7781944,35.8477669 33.9345184,35.1585547 35.0019343,34.3470216 C34.9847766,34.3598705 34.9686588,34.3727193 34.9515011,34.3860821 C34.9483815,34.3886519 34.9452619,34.3907077 34.9421424,34.3932775 C34.9452619,34.3907077 34.9483815,34.3886519 34.9515011,34.3860821 C35.8982933,33.6583235 36.7561775,32.8267461 37.4939579,31.8908362 C38.1038356,31.0988333 38.6201259,30.2374467 39.0183922,29.3231228 C39.4145787,28.3759059 39.6797429,27.3783214 39.8242833,26.3642905 C39.9625847,25.2988641 39.9631046,24.2262425 39.8237635,23.1608161 C39.8237635,23.1608161 39.8237635,23.1613301 39.8237635,23.1613301 C39.8253232,23.1726371 39.826883,23.1839441 39.8284428,23.195251 C39.826883,23.1839441 39.8253232,23.1726371 39.8237635,23.1613301 C39.8237635,23.1613301 39.8237635,23.1608161 39.8237635,23.1608161 C39.8237635,23.1608161 39.8237635,23.1608161 39.8237635,23.1613301 C39.8237635,23.1613301 39.8237635,23.1608161 39.8237635,23.1608161 C39.8237635,23.1608161 39.8237635,23.1608161 39.8237635,23.1608161 C39.8237635,23.1608161 39.8237635,23.1608161 39.8237635,23.1608161 C39.8237635,23.1608161 39.8237635,23.1608161 39.8237635,23.1608161 C39.8237635,23.1608161 39.8237635,23.1603022 39.8237635,23.1603022 C39.8237635,23.1603022 39.8237635,23.1603022 39.8237635,23.1597882 C39.8216837,23.1417999 39.8190841,23.1238115 39.8164844,23.1058231 C39.8190841,23.1238115 39.8211638,23.1417999 39.8237635,23.1597882 C39.7369351,22.5569204 39.6131919,21.9586781 39.4431748,21.3732847 C39.2819965,20.8182145 39.0839033,20.2749653 38.8592936,19.7425091 C38.8332972,19.6823765 38.8067807,19.6222439 38.7802643,19.5621113 C38.9492415,21.4087475 38.8353768,23.2831372 38.3050485,25.067071 C38.2904904,25.1169245 38.2754124,25.1662641 38.2598145,25.2156036 C38.2317383,25.7583389 38.1813052,26.3000462 38.1048754,26.8402118 C38.019087,27.4441076 37.9093818,28.0469754 37.7487235,28.6354525 C37.590145,29.2213599 37.3852926,29.7923627 37.1424853,30.3489747 C36.6631101,31.4452382 36.0220366,32.460811 35.2437016,33.374621 C34.4638069,34.2910007 33.5534098,35.0973942 32.5603438,35.7835227 C32.2364276,36.0070926 31.9031526,36.2183276 31.5615586,36.4161999 M37.3337201,21.1893539 C37.3292473,21.1646626 37.3247746,21.1399712 37.3195564,21.1152799 C37.3247746,21.1399712 37.3292473,21.1646626 37.3337201,21.1893539 M13.5953837,35.1765431 C12.9199948,34.7874801 12.2617637,34.3680938 11.6290091,33.9158144 C9.63559823,32.4895924 7.86523716,30.7555121 6.45258784,28.7608573 C5.02850004,26.7492419 3.98084145,24.4667729 3.40267949,22.0779154 C3.36888406,21.9386339 3.3366484,21.7993524 3.30597255,21.659043 C3.29869353,22.5538367 3.35172637,23.4491443 3.46767072,24.3387984 C3.65484545,25.6714807 4.01203724,26.9717839 4.53196706,28.2155522 C4.64323204,28.474071 4.7628159,28.7289921 4.89019871,28.9798016 C4.98846545,29.1288482 5.08777204,29.276867 5.18811849,29.4248856 C5.42364673,29.7733464 5.66697388,30.1166676 5.92589894,30.4491956 C6.26073374,30.8680681 6.62364475,31.2653544 7.00215366,31.6467081 C7.38846151,32.0362851 7.79140712,32.4037621 8.22606847,32.7404019 C9.11826806,33.4100838 10.1227725,33.9122167 11.1522335,34.3434239 C11.948766,34.6708126 12.7650558,34.9493756 13.5953837,35.1765431 M2.40928855,22.8663853 C2.40556128,22.841694 2.40108855,22.8170026 2.39661583,22.7923113 C2.4003431,22.8170026 2.40481583,22.841694 2.40928855,22.8663853 M21.7042092,36.2424834 C21.8856647,36.2234671 22.0676401,36.201881 22.2485757,36.1782392 C22.2412967,36.1792671 22.2340177,36.180295 22.2262188,36.1813229 C22.2355775,36.180295 22.2449362,36.1787531 22.254295,36.1772113 C22.2719726,36.1746415 22.2896502,36.1725857 22.3073278,36.1700159 C22.2953694,36.1715578 22.2839309,36.1730996 22.2719726,36.1746415 C24.2383471,35.9027599 26.1636473,35.3867503 27.9963999,34.6317521 C27.9912006,34.6338079 27.9860013,34.6363776 27.980802,34.6384335 C27.9927604,34.6332939 28.0047187,34.6281544 28.0166772,34.6235288 C28.0281156,34.6189033 28.039554,34.6142776 28.0509925,34.6091381 C28.0452733,34.6117079 28.039554,34.6137637 28.0338348,34.6158195 C28.8303673,34.2796937 29.6087022,33.9034795 30.3584411,33.474328 C31.1123393,33.0426067 31.8355617,32.5641158 32.5265484,32.0398828 C33.0012443,31.6749756 33.462942,31.2905381 33.9048824,30.8850285 C33.9521959,30.8074215 33.9989897,30.7293005 34.0452634,30.6506656 C34.3790583,30.078121 34.6743785,29.4855322 34.9364232,28.8770108 C35.5275833,27.4734029 35.9107716,25.9906461 36.1197834,24.4852753 C36.1166638,24.5120008 36.1125044,24.5387264 36.1093848,24.565452 C36.1546187,24.2308681 36.1915337,23.8952562 36.2206498,23.5591304 C35.9014129,24.9745593 35.4111191,26.3504137 34.7289711,27.6368402 C34.1684867,28.6950712 33.4858189,29.68803 32.6794077,30.5781981 C31.8714368,31.4693941 30.9542806,32.2557434 29.966414,32.9449556 C28.950991,33.6542119 27.8617381,34.2617053 26.7236117,34.7581847 C25.5823657,35.2556921 24.4005653,35.6663412 23.1860091,35.9505576 C22.6972751,36.0656833 22.202302,36.1638485 21.7042092,36.2424834 M4.0234757,30.2739374 L4.0234757,30.2739374 C4.0234757,30.2739374 4.0234757,30.2739374 4.0234757,30.2739374 C4.0234757,30.2739374 4.0234757,30.2739374 4.0234757,30.2739374 C4.44617864,30.8110192 4.9021571,31.3224033 5.39817016,31.7942129 C5.86818672,32.2423807 6.36419977,32.660739 6.87945023,33.0564836 C6.47442489,32.6848949 6.12243241,32.2680783 5.79695634,31.826592 C5.44392399,31.348101 5.10596958,30.857275 4.79297183,30.3520584 C4.47477478,29.8386185 4.18205429,29.3113019 3.93508763,28.7608573 C3.8908936,28.6621781 3.84721949,28.563499 3.80458524,28.4637919 C3.76299086,28.3969779 3.72191641,28.32965 3.68136187,28.2618081 C3.36732427,27.7375752 3.08344259,27.1943259 2.82971683,26.6387419 C2.57339143,26.0780182 2.34410238,25.5054736 2.16628638,24.9149407 C2.08725705,24.6523102 2.01550673,24.387624 1.95207529,24.120368 C1.96247389,24.7813127 2.01030743,25.4417433 2.09609585,26.0996042 C2.1631668,26.5755255 2.25103494,27.0473352 2.3602202,27.5145192 C2.8047602,28.496171 3.36472461,29.4171764 4.0234757,30.2739374 M27.7130382,37.2462353 C27.7863482,37.227733 27.8591384,37.2082027 27.9324485,37.1876445 C28.491893,37.0324305 29.0388592,36.8422676 29.5754267,36.6212674 C30.6729986,36.1530555 31.7066191,35.557383 32.6570508,34.8414453 C33.5248137,34.1722773 34.3125074,33.4105977 34.9910158,32.5533227 C35.5904948,31.7762245 36.0906673,30.9364239 36.4842542,30.0395744 C36.7135433,29.4968392 36.9085169,28.9402272 37.0530574,28.3697384 C37.1144091,28.1276661 37.1684819,27.884566 37.2168353,27.6399239 C37.0894525,27.8650357 36.9547907,28.0860359 36.8123299,28.3029244 C36.1603379,29.2974251 35.3955212,30.211749 34.5355572,31.036131 C34.4981223,31.0721077 34.4601674,31.1080845 34.4222126,31.1440613 C33.5289731,32.6232204 32.396566,33.9569307 31.0556669,35.066043 C30.5918895,35.4504805 30.1099146,35.8159017 29.6061026,36.1484299 C29.092412,36.4871255 28.5620835,36.7996094 28.0182369,37.0879375 C27.9168507,37.1408747 27.8149444,37.193812 27.7130382,37.2462353 M4.10241223,30.3706254 C4.08303041,30.3454547 4.0636486,30.3217221 4.04352132,30.2965513 C4.06290314,30.3217221 4.08228496,30.3461738 4.10241223,30.3706254 M18.193643,38.9448527 C18.9631392,38.9448527 19.7326353,38.9006527 20.4990119,38.8132806 C18.6709386,38.6457316 16.8589832,38.2941872 15.1005805,37.7766356 C13.8953832,37.4214936 12.7099432,36.9990235 11.5551791,36.5081976 C10.4186125,36.0255949 9.3059627,35.4720666 8.24634573,34.8404173 C7.20232664,34.2180192 6.20978062,33.5025955 5.29990343,32.6992856 C4.71342257,32.1812201 4.16697633,31.6210104 3.6678437,31.0212263 C4.02399563,31.6749756 4.4331804,32.2994295 4.88915885,32.8920183 C5.66957353,33.8829213 6.58257029,34.7643521 7.58343522,35.5368248 C8.67424797,36.3606928 9.8622876,37.0416816 11.1246772,37.5736239 C12.5820405,38.1723801 14.112194,38.5712083 15.675623,38.7850131 C16.5116701,38.8919155 17.3529166,38.9448527 18.193643,38.9448527 M24.4447592,37.6486612 C24.7520378,37.6486612 25.0582765,37.6383821 25.3639952,37.6178239 C25.5678077,37.5407308 25.7705803,37.461068 25.9723131,37.3778075 C27.4515134,36.7559233 28.8740414,35.9788251 30.1525488,35.0141337 C30.1421503,35.021843 30.1322716,35.0295524 30.121873,35.0377756 C30.1333115,35.0290384 30.1452698,35.0197873 30.1567083,35.01105 C30.1655471,35.0043686 30.1743859,34.9976872 30.1837446,34.9904919 C30.1759457,34.9961453 30.1681467,35.0023128 30.1603478,35.0079663 C30.6750783,34.6122219 31.1700515,34.1912936 31.632789,33.7379863 C31.9858214,33.3926093 32.3201363,33.0302719 32.6367736,32.6530298 C32.3331345,32.8812253 32.0227364,33.1011975 31.7060991,33.3114047 C30.6875566,33.9882819 29.6055827,34.5690497 28.4814944,35.0552501 C26.1652071,36.0564321 23.6945005,36.6880814 21.1754406,36.9065118 C20.7236215,36.9455723 20.2712826,36.9717839 19.8184238,36.9841188 C20.631074,37.2076887 21.4572425,37.382947 22.2948495,37.5001285 C22.9624394,37.5869867 23.6362684,37.6414658 24.3100974,37.6481472 C24.3553313,37.6486612 24.4000453,37.6486612 24.4447592,37.6486612 M22.8558537,38.2931593 C22.521019,38.2612941 22.1867041,38.2196639 21.8544689,38.1698104 C20.6201555,37.984787 19.4035197,37.6825821 18.2243189,37.2775864 C17.8863645,37.1614329 17.5510098,37.0391119 17.2177348,36.9095955 C15.9751025,36.804749 14.7387094,36.6068767 13.5303925,36.3036439 C12.6069971,36.0713368 11.6986798,35.779925 10.8189585,35.4186154 C11.2577793,35.6303644 11.7012794,35.8313204 12.1510187,36.0209693 C14.541656,37.0113584 17.0487576,37.7236984 19.6182507,38.073187 C20.6383531,38.2057871 21.6678141,38.2823662 22.6967553,38.2926453 C22.7497881,38.2926453 22.8028209,38.2931593 22.8558537,38.2931593 M17.0690349,0 C15.816004,0 14.5681724,0.127974508 13.3608954,0.380839801 C12.1291816,0.638330678 10.9323031,1.0880403 9.80353557,1.71866167 C8.76575565,2.2973737 7.78152843,3.08063936 6.87789044,4.04533073 C6.48066405,4.46985661 6.08967683,4.95605695 5.68257178,5.53271316 C5.3394181,6.01788559 5.01134236,6.54828596 4.70770334,7.10849566 C4.24548573,7.96114511 3.84669956,8.88420622 3.52122349,9.85352319 C3.36576448,10.0344349 3.22798308,10.2009559 3.10060027,10.3607956 C2.88586925,10.6290795 2.67529767,10.9055867 2.47200511,11.1728427 C2.38517683,11.2864264 2.29886849,11.4005242 2.21152028,11.514108 C2.20008182,11.5279848 2.18864336,11.5418616 2.17772483,11.5557383 C2.08881684,11.6636686 1.97339242,11.8343013 1.97339242,12.0815131 C1.97339242,12.2901784 2.05918084,12.494218 2.20892062,12.6422367 C2.35346111,12.7861438 2.55467396,12.8709462 2.76212595,12.8745439 C2.75588679,12.9094927 2.75016757,12.9439276 2.74392841,12.9788765 C2.18188428,13.8854911 1.68327158,14.8558359 1.26212842,15.8647273 C0.778073758,17.0231793 0.428160991,18.2371383 0.221228923,19.4721694 C0.00337832758,20.7801819 -0.0538139525,22.0732899 0.0506919413,23.3150023 C0.158837344,24.5973172 0.433880219,25.8431413 0.868021615,27.0180398 C0.992804772,27.3557075 1.13214597,27.6928612 1.28240569,28.0207637 C1.4778993,28.7891247 1.73370477,29.5518322 2.04358294,30.2873002 C2.51827887,31.4123452 3.14791388,32.4859947 3.91429043,33.4774117 C4.64479183,34.4241147 5.5208736,35.3106851 6.518099,36.1119391 C7.49296738,36.8941769 8.55726379,37.5689983 9.68187195,38.1163592 C11.91913,39.2054273 14.408554,39.8298813 17.0815132,39.9722465 C17.4293462,39.9907488 17.7828985,40 18.1338511,40 C19.8714566,40 21.631419,39.7748882 23.3669448,39.3313461 C25.7222269,39.2794367 28.0197967,38.8564527 30.1972628,38.073701 C31.395701,37.6419798 32.5525449,37.1018142 33.6360786,36.4675952 C34.7471686,35.8174436 35.7584322,35.0783779 36.6407531,34.2709564 C37.5412715,33.4465745 38.3326047,32.5116924 38.9923956,31.492522 C39.6683044,30.4486817 40.1845948,29.2943413 40.5261886,28.0629079 C40.8651828,26.8432955 41.0232416,25.5722876 40.997245,24.2863751 C40.9842468,23.6824793 40.9218552,23.051344 40.8069508,22.3564784 C40.7071242,21.7520687 40.5563445,21.1276147 40.3587712,20.501105 C40.1856346,19.9522023 39.9662242,19.3863391 39.6693443,18.719741 C39.4254972,18.1708382 39.145255,17.6270751 38.81198,17.0581281 C38.8099003,17.0545305 38.8078206,17.0514468 38.8057408,17.0478491 C38.5842507,16.0487228 38.2754124,15.0290384 37.8880647,14.0160353 C37.426367,12.8097857 36.8799208,11.67035 36.2643239,10.6301074 C35.6513266,9.59449044 34.9213451,8.58251526 34.0941368,7.62142163 C33.3215211,6.72303027 32.4236023,5.85753199 31.425337,5.04908259 C30.4899833,4.29048671 29.4594824,3.59099553 28.3624305,2.97013928 C27.3116523,2.37446677 26.173526,1.85537339 24.8825402,1.3830498 C22.4794245,0.504188724 19.8376611,0.0262116462 17.2432114,0.00154186154 C17.1860191,0 17.1272669,0 17.0690349,0 L17.0690349,0 Z M15.075104,1.8764455 C15.7666106,1.79010125 16.4924326,1.74641517 17.2312529,1.74641517 C18.1151336,1.74641517 19.0426885,1.80911754 19.9879209,1.93246647 C21.8950234,2.19869456 23.7766495,2.71213445 25.579766,3.45839544 C27.2487408,4.16559593 28.8100901,5.06758493 30.2216995,6.13815079 C30.7712654,6.56267667 31.2958745,7.01033047 31.7929274,7.47854244 C31.1643323,6.94608624 30.4660665,6.43829984 29.6804525,5.94182042 C28.8199687,5.39702935 27.8804555,4.90671738 26.8868697,4.48578918 C26.039384,4.1013517 25.1679816,3.78938171 24.2965793,3.55913039 C23.7267362,3.40854191 23.1090596,3.29136044 22.3520417,3.19165339 C22.3068078,3.18548594 22.2615739,3.17983245 22.2163401,3.17469291 C21.379773,3.05596957 20.5312475,2.99532302 19.6946805,2.99532302 C19.3442477,2.99532302 18.9901755,3.00611605 18.6423425,3.02718816 C16.9967646,3.12638125 15.3439077,3.44811636 13.7300456,3.98314231 C12.9059567,4.13218893 12.0912267,4.33108907 11.3092523,4.57470319 C10.392616,4.86097548 9.48637836,5.23359202 8.61601582,5.68175978 C8.20891079,5.8919669 7.79348686,6.13146939 7.3811825,6.39409981 C7.32399022,6.43059053 7.26679794,6.46759521 7.20908573,6.50562779 C7.33178917,6.33139744 7.45709223,6.16076476 7.58551489,5.99424372 C8.18395417,5.24181528 8.86506219,4.56750784 9.60908181,3.98930976 C10.2917496,3.47895359 11.0576062,3.04106491 11.8858545,2.68849257 C12.3865469,2.48496685 12.911676,2.31433417 13.4456439,2.18122013 C13.9244993,2.06095493 14.4574274,1.96176184 15.075104,1.8764455 L15.075104,1.8764455 Z M15.889834,6.39666958 C16.1523985,6.38587655 16.4222421,6.38022306 16.6926057,6.38022306 C17.6789126,6.38022306 18.7016145,6.45114869 19.8199835,6.59659762 C20.942512,6.75026982 21.9657339,6.94660019 22.9468415,7.19638176 C23.9757826,7.45849822 25.0218814,7.80747289 26.0565417,8.23456852 C26.3487423,8.35791748 26.6435425,8.49000363 26.9341832,8.62722926 C26.9866962,8.75366193 27.0407688,8.88369222 27.0969213,9.01218074 C27.1296769,9.0897877 27.1629523,9.16842267 27.2009072,9.24859948 C27.2508205,9.35344607 27.336089,9.50403452 27.499347,9.60631133 C27.5996934,9.66849978 27.714078,9.70087889 27.8321021,9.70087889 C28.0015991,9.70087889 28.1674568,9.63355089 28.2865207,9.51688341 L28.2875606,9.51585548 L28.2886004,9.51482756 C28.3296749,9.47422519 28.3639902,9.42899726 28.3910266,9.38119956 C29.4137286,9.95477207 30.424992,10.6182864 31.4055797,11.3594079 C32.2676234,12.0193247 33.0849531,12.7208716 33.8357317,13.4455466 C33.974033,13.7158863 34.1050553,13.9929074 34.2256791,14.2694146 C34.7258516,15.4571619 35.0695252,16.6772884 35.2473411,17.8963869 C35.3414484,18.6133525 35.3872023,19.3441949 35.38392,20.0683559 C35.3794033,20.7488307 35.3279303,21.4601429 35.2249841,22.2428946 C35.019092,23.69687 34.640583,25.0830036 34.099856,26.3617207 L34.099856,26.3617207 C33.6204807,27.4636378 33.0298405,28.4735571 32.3424932,29.365267 C31.9858214,29.8175464 31.6052328,30.245156 31.2100861,30.635247 C30.8170191,31.0237961 30.3714393,31.4118312 29.8853049,31.7880454 C28.7279411,32.6679344 27.4145984,33.4203628 25.9827117,34.0242586 C24.4182428,34.6702986 22.7981415,35.1122989 21.1676416,35.3389526 L21.1484042,35.3415223 C20.3986654,35.4381456 19.6260497,35.4874853 18.8518742,35.4874853 C18.0818582,35.4874853 17.2946844,35.4391736 16.5116701,35.3435781 C14.8099398,34.5695636 13.2350723,33.6351956 11.829702,32.5656576 C10.4087338,31.4657964 9.1401051,30.2132908 8.05969092,28.8425759 C7.08430257,27.5823611 6.27061241,26.2059927 5.64097739,24.7525313 C5.00614306,23.2471604 4.5657625,21.6446523 4.33127415,19.988693 C4.2345672,19.2557948 4.17685499,18.4987408 4.15917738,17.7370612 C4.41966222,16.5313255 4.78777253,15.3471759 5.25258982,14.2169913 C5.64253718,13.5863699 6.07303907,12.9588323 6.53369689,12.3508249 C7.24288117,11.5521406 8.04305319,10.8069076 8.91185587,10.1356839 C9.73646456,9.51122993 10.6572603,8.91709926 11.7272758,8.31988489 C12.7161824,7.76687052 13.7607214,7.25754227 14.8317768,6.80577684 C14.8421754,6.80166521 14.8525741,6.79703962 14.8624527,6.79292799 C15.2097658,6.64953487 15.5544793,6.51642082 15.889834,6.39666958 L15.889834,6.39666958 Z M35.7677909,12.8339415 C35.6950008,12.6674204 35.619091,12.5024413 35.5411015,12.33849 C35.6747235,12.5851879 35.8052258,12.839595 35.9326087,13.1001696 C35.878536,13.0112556 35.8234234,12.9223416 35.7677909,12.8339415 L35.7677909,12.8339415 Z M38.6731588,25.2870433 C38.6835573,25.2526083 38.6944759,25.2176595 38.7048745,25.1827106 C38.9830369,24.2462867 39.1587732,23.2553836 39.2315634,22.2197667 C39.301234,22.5332785 39.3605059,22.8570694 39.4088594,23.1895976 L39.4088594,23.2111836 L39.4156185,23.2368813 C39.5466409,24.2519401 39.5461209,25.2855013 39.4135388,26.3098114 C39.271078,27.3115074 39.0095533,28.2715732 38.6367637,29.1632831 C38.2582547,30.0308373 37.7638015,30.8639564 37.1658822,31.6400267 C36.937633,31.9293827 36.6953457,32.2110295 36.4395403,32.4844529 C36.8622432,31.8574292 37.2251542,31.1975124 37.5251537,30.511898 C37.781999,29.9244488 37.9925706,29.3287763 38.1516691,28.741327 C38.2998491,28.1980778 38.4163134,27.6116564 38.5176997,26.8967467 C38.5910098,26.3771393 38.6430028,25.8359459 38.6731588,25.2870433 L38.6731588,25.2870433 Z M36.7608569,26.5071696 C36.804011,26.3319114 36.8450855,26.1556253 36.8840802,25.9783111 C36.967269,25.5995272 37.0400592,25.2104641 37.1029707,24.8126639 C37.0925721,25.1739734 37.0728148,25.5291155 37.0431788,25.8775762 C37.0234214,25.9269158 37.0031442,25.9762553 36.9833868,26.024053 L36.9823469,26.0261089 L36.9807871,26.0302205 L36.9807871,26.0307344 L36.9802673,26.0317624 C36.9116365,26.1900601 36.8388463,26.3488719 36.7608569,26.5071696 L36.7608569,26.5071696 Z M4.9161952,28.0567405 C4.55328418,27.1876445 4.27096229,26.2877113 4.07390889,25.3697898 C4.62607436,26.6433674 5.31238174,27.8665776 6.11255374,28.9972761 C7.33178917,30.7195354 8.82450768,32.2747597 10.5595135,33.6315979 C9.73282511,33.2445907 9.06055578,32.850388 8.481354,32.4155831 C8.09036675,32.1123503 7.70405893,31.7669733 7.30059338,31.3594079 C6.89972748,30.9554402 6.55813359,30.5751144 6.25501451,30.1963304 C6.02780517,29.9044046 5.79903606,29.5867811 5.53491171,29.1966901 C5.43820476,29.0543249 5.34357753,28.9124736 5.25258982,28.775248 C5.132486,28.5378013 5.01966123,28.296243 4.9161952,28.0567405 L4.9161952,28.0567405 Z M3.46299135,28.7202549 C3.36368476,28.5552757 3.26801767,28.3892687 3.17651002,28.2212057 C3.22486349,28.3054941 3.27425682,28.3892687 3.32365016,28.4720152 C3.36004525,28.5326618 3.39696027,28.5927944 3.43387528,28.652927 C3.44323402,28.675541 3.45311268,28.697641 3.46299135,28.7202549 L3.46299135,28.7202549 Z M31.6010733,32.2028062 C32.1017658,31.7726268 32.5660631,31.3213753 32.9908458,30.8531634 C33.5305329,30.2574909 34.0255061,29.6063113 34.4710859,28.9073341 C34.2324382,29.443388 33.9683138,29.9604256 33.685472,30.4461119 C33.6511566,30.5047027 33.6158014,30.5643213 33.5799262,30.62394 C33.1759408,30.9919309 32.7366001,31.358894 32.2733426,31.715064 C32.0528923,31.881585 31.8288026,32.0445084 31.6010733,32.2028062 L31.6010733,32.2028062 Z M34.7497683,31.4025801 C34.774725,31.3789381 34.7996816,31.3547824 34.8246382,31.3311404 C35.2478611,30.9256309 35.6476871,30.4990492 36.0220366,30.0539652 C35.6580857,30.846482 35.2010674,31.6019941 34.6613802,32.3019993 C34.0244662,33.106337 33.2643288,33.8515701 32.4022852,34.5161124 C32.2395471,34.6389474 32.0736895,34.7576707 31.9057522,34.8733104 C33.003844,33.8680167 33.9584351,32.7039112 34.7497683,31.4025801 L34.7497683,31.4025801 Z M7.83768091,35.211492 C7.57771594,35.01105 7.32658987,34.8044406 7.08430257,34.5926916 C7.39314089,34.799815 7.7087383,34.999743 8.03109476,35.1919618 C9.06575511,35.8081924 10.1960825,36.3781673 11.3908813,36.8854397 C12.5420059,37.3752377 13.7503228,37.8074729 14.9815166,38.1703243 C15.223284,38.2417639 15.4660912,38.3096058 15.7094184,38.374364 C14.1595076,38.1605592 12.6714684,37.7637868 11.2863754,37.1948399 C10.051542,36.6742047 8.89157861,36.0070926 7.83768091,35.211492 L7.83768091,35.211492 Z M22.7154727,37.137277 C24.7483983,36.8294187 26.7381697,36.2579021 28.6478719,35.4319782 C28.8381663,35.3497456 29.0269008,35.2649432 29.2140755,35.177571 C28.1991725,35.8636994 27.0579265,36.4747906 25.8106149,36.9995374 C25.6338388,37.0725189 25.4539431,37.1439584 25.2740473,37.2123144 C24.9974447,37.2292748 24.7187623,37.238012 24.4447592,37.238012 C24.4016051,37.238012 24.357931,37.238012 24.3147768,37.2374981 C23.8026459,37.2323585 23.276477,37.1994655 22.7154727,37.137277 L22.7154727,37.137277 Z" id="Shape"></path>
        </g>
    </g>
</svg>