<?xml version="1.0" encoding="UTF-8"?>
<svg width="55px" height="54px" viewBox="0 0 55 54" version="1.1" xmlns="http://www.w3.org/2000/svg" xmlns:xlink="http://www.w3.org/1999/xlink">
    <title>logo</title>
    <g id="Page-1" stroke="none" stroke-width="1" fill="none" fill-rule="evenodd">
        <g id="logo" transform="translate(0.000000, 0.000000)" fill="#7F7F7F" fill-rule="nonzero">
            <path d="M24.3272928,53.7224649 C23.8613849,53.7224649 23.3912923,53.7099758 22.9302667,53.6849977 C19.3829504,53.4948862 16.0797475,52.6615871 13.1120261,51.2073033 C11.622237,50.477386 10.211959,49.5781724 8.92094791,48.5353343 C7.6006432,47.4675181 6.44075583,46.2866064 5.4740668,45.0252094 C4.46064749,43.7055301 3.6278721,42.2776122 3.00015195,40.7803104 C2.58655412,39.7922856 2.24549283,38.7681811 1.98603517,37.7357506 C1.78307232,37.2923883 1.59545375,36.8358431 1.42736424,36.3786041 C0.853349037,34.8153878 0.489968818,33.1578095 0.346988118,31.4516626 C0.208889685,29.7975536 0.28491357,28.0754484 0.572967371,26.3325281 C0.846374369,24.6853575 1.31088728,23.067328 1.9518593,21.5228452 C2.51820237,20.1580665 3.18986292,18.8453256 3.94800937,17.6207021 C3.98079031,17.4250398 4.01566365,17.2293776 4.05193193,17.035103 C3.93963977,17.0829778 3.82176787,17.1030991 3.72481999,17.1030991 C3.514185,17.1030991 3.30843229,17.0177571 3.16056932,16.8692758 C3.01270635,16.7221822 2.9276154,16.518194 2.9276154,16.3093488 C2.9276154,16.0644241 3.04060502,15.89374 3.14104025,15.7723184 C3.15638452,15.752891 3.17172879,15.7341574 3.18707306,15.7154238 C3.30564242,15.5606979 3.42281685,15.4045845 3.54068874,15.2491648 C3.81270081,14.8897569 4.09377994,14.5178599 4.37974134,14.158452 C4.55759538,13.9343424 4.75149116,13.6991314 4.97258815,13.4410238 C5.40710998,12.1289767 5.94206704,10.8800689 6.56211506,9.7282983 C6.96385595,8.98172894 7.39837782,8.27540217 7.85242873,7.62874544 C8.39157059,6.86136095 8.90769604,6.21401038 9.43149363,5.65130801 C10.6241619,4.36978979 11.9221477,3.33042093 13.2891827,2.56303644 C14.7775769,1.72626818 16.3566418,1.12887393 17.9817395,0.787505782 C19.5824259,0.450300663 21.2368172,0.27961659 22.8981832,0.27961659 C22.9762995,0.27961659 23.0537183,0.280310428 23.1318346,0.281004266 C26.5801106,0.314308475 30.0911587,0.952639153 33.2855568,2.12869404 C35.0027201,2.76078018 36.5162231,3.45531171 37.9118543,4.25183739 C39.3702574,5.08305494 40.7393848,6.01834815 41.9822707,7.03204502 C43.3081551,8.11304415 44.500126,9.27036542 45.5260997,10.4700108 C46.6253074,11.7543044 47.5947863,13.1079817 48.4087301,14.4914941 C49.2268587,15.8826386 49.9529217,17.4063062 50.5666925,19.0208665 C51.0877002,20.3905021 51.5006006,21.7684638 51.795629,23.1179781 L51.8256201,23.1686283 C52.2671166,23.9290744 52.6388664,24.6541348 52.9617936,25.3854397 C53.3558623,26.2749396 53.6460085,27.029835 53.8754751,27.7604461 C54.1370252,28.594439 54.3358032,29.4242689 54.4676245,30.2284268 C54.6196722,31.1533124 54.7026708,31.9921622 54.71941,32.7942386 C54.7542833,34.5045485 54.5450433,36.1933494 54.097967,37.8141543 C53.646706,39.4502236 52.9652809,40.9822172 52.0739183,42.3678111 C51.2013873,43.7242638 50.155187,44.9676209 48.9646111,46.0645783 C47.7949593,47.1414144 46.454428,48.1273578 44.9806806,48.9953487 C43.542504,49.8425245 42.0059846,50.5641157 40.4143653,51.1413887 C37.5122058,52.191859 34.4489314,52.7573367 31.3082383,52.8232513 C28.9933459,53.418564 26.6449751,53.7224649 24.3272928,53.7224649 Z M6.78042218,44.236316 C7.77431244,45.5067328 8.97395539,46.6918076 10.3444777,47.7561546 C11.7756797,48.8440921 13.3533496,49.7571825 15.0328498,50.4697538 C16.9208925,51.2503212 18.9519159,51.79429 21.0666353,52.0857018 C22.1637507,52.2272447 23.2880672,52.29871 24.4061065,52.29871 C24.4730633,52.29871 24.5400202,52.29871 24.6076744,52.2980161 C23.1199777,52.0433777 21.6378607,51.6978465 20.1766677,51.2648918 C18.5355282,50.7778178 16.9250773,50.1977694 15.3906502,49.541399 C13.7997284,48.861438 12.294595,48.0982166 10.9177955,47.2725497 C9.47403911,46.4059464 8.13002053,45.4234723 6.92340288,44.351493 C6.86481566,44.2994552 6.80622845,44.2467235 6.7483387,44.1939919 C6.75880071,44.2078686 6.76926271,44.2217454 6.78042218,44.236316 Z M20.0720476,49.7086139 C21.9803169,50.3060081 23.8948633,50.7521458 25.7982503,51.0428638 C25.3149058,50.9040962 24.8336537,50.7521458 24.3558889,50.5870124 C23.9123,50.4336743 23.4673162,50.2706224 23.0327943,50.101326 C22.0277446,50.0145963 21.0373417,49.883461 20.0720476,49.7086139 Z M28.4730356,50.0964691 C28.9689345,50.1970756 29.4613461,50.2824176 29.9474805,50.3511076 C30.8953379,50.4753045 31.7685664,50.5398314 32.6145937,50.5474636 C32.6738784,50.5481575 32.733163,50.5481575 32.7917502,50.5481575 C33.1788443,50.5481575 33.5736106,50.5356684 33.9648895,50.5099964 C34.2222547,50.4114714 34.4810149,50.3087835 34.7334979,50.204014 C36.8154364,49.3228401 38.6818576,48.2605746 40.2790567,47.0484402 L40.2853339,47.0435833 L40.2881238,47.0408079 C40.8391226,46.6147916 41.3357189,46.1957136 41.7953496,45.771085 C40.6954444,46.4448014 39.5292798,47.0505217 38.31778,47.5778383 C35.1687172,48.9488616 31.8564472,49.7960374 28.4730356,50.0964691 Z M46.3958408,42.218636 C45.1627194,44.2668448 43.6289899,46.0611091 41.8385925,47.5514725 C41.1585624,48.1190317 40.514103,48.6026366 39.8696437,49.0307344 C39.8410475,49.0501619 39.8117539,49.0688955 39.7824603,49.088323 C41.1529826,48.4805211 42.4502709,47.715912 43.6387544,46.8146168 C44.8125911,45.9043018 45.8497243,44.8808912 46.7194654,43.7756078 C47.5096953,42.7438711 48.1722888,41.6219356 48.6863219,40.4424115 C48.9074189,39.9157887 49.0922476,39.4085933 49.2456903,38.9090302 C48.4505781,40.0490055 47.5361991,41.1189032 46.5227798,42.0972144 C46.4802343,42.1381508 46.4376888,42.1783934 46.3958408,42.218636 Z M22.0737774,47.9837334 C23.1499688,48.117644 24.2317398,48.1856401 25.2904945,48.1856401 C26.3408795,48.1856401 27.3891722,48.1190317 28.4067763,47.9865087 L28.4360699,47.9823457 C30.6477372,47.6728941 32.8447577,47.0692553 34.9657544,46.1880814 C36.9081995,45.3638022 38.6909247,44.3355348 40.2637124,43.1324202 C40.923516,42.6182865 41.5303122,42.0868068 42.0666642,41.5539395 C42.605806,41.0176029 43.1247214,40.4313101 43.6101583,39.8110192 C44.5454613,38.5898648 45.3510355,37.2049648 46.003167,35.695174 L46.003167,35.695174 C46.7375996,33.9460091 47.2516326,32.0511384 47.5313168,30.0639873 C47.6708102,28.9968649 47.7405569,28.0247983 47.7463617,27.0943619 C47.7510189,26.1028679 47.6889443,25.1023539 47.5606104,24.1205736 C47.3199844,22.4532816 46.8519841,20.7804389 46.170559,19.1540834 C46.0010746,18.7641466 45.8155484,18.3700468 45.6195602,17.9856607 C44.5949814,16.9886159 43.4790345,16.0227939 42.301013,15.1152542 C40.8774832,14.0328673 39.4058282,13.0712083 37.917434,12.251786 C37.917434,12.3995734 37.8609392,12.5390348 37.7514369,12.649355 C37.6412371,12.7575937 37.4905843,12.8186514 37.3364441,12.8186514 C37.2304292,12.8186514 37.1279015,12.7895102 37.0407182,12.734697 C36.8837881,12.6354782 36.7986972,12.4863031 36.7422024,12.366963 C36.6926822,12.2621936 36.6487418,12.1567302 36.6061964,12.0554299 C36.5218029,11.862543 36.4395018,11.662024 36.360688,11.4691371 L36.3495286,11.4427712 C35.9240738,11.2380891 35.4909469,11.0424269 35.0620048,10.8599476 C33.6628863,10.2792054 32.2463312,9.80323277 30.852095,9.44590636 C29.5248156,9.10592589 28.1424363,8.83949221 26.625446,8.62995323 C25.1147328,8.43220949 23.7295637,8.33576605 22.3932172,8.33576605 C22.0117029,8.33576605 21.6315835,8.3440921 21.261926,8.36005037 C20.7953207,8.52726525 20.3133712,8.71390759 19.8300266,8.91581436 L19.7909685,8.93246646 C18.3437248,9.54720666 16.9327494,10.2396567 15.5971004,10.9910829 C14.1498568,11.8049545 12.9034835,12.6139693 11.7861417,13.466002 C10.6046328,14.3839492 9.51588712,15.4052783 8.55059303,16.5001542 C7.92078048,17.3369224 7.33211847,18.2014442 6.79925378,19.0687413 C6.16107163,20.6264069 5.65750058,22.2576194 5.30248996,23.9200545 C5.32550637,24.9698309 5.40432012,26.0140566 5.53683882,27.0242843 C5.85488369,29.2820322 6.45261277,31.4703963 7.31398433,33.5255435 C8.16698627,35.5085316 9.27107626,37.3881379 10.5948683,39.1088554 C12.0574563,40.9766665 13.7760145,42.6842011 15.7017205,44.1835843 C17.6113846,45.646888 19.7560952,46.9256309 22.0737774,47.9837334 Z M47.6715076,35.6563191 C47.4183272,36.2689777 47.1400379,36.8635966 46.8366398,37.4394819 C46.0547795,38.9242946 45.1166866,40.2793596 44.04747,41.4665159 C42.9935976,42.6370201 41.7528041,43.7256514 40.3613578,44.7032687 C39.3500309,45.4144524 38.2787218,46.0541707 37.1641698,46.6140978 C37.2590253,46.5759367 37.3531833,46.5370818 37.4480388,46.4982269 C37.4654755,46.4905946 37.4822147,46.4836563 37.4996514,46.4767179 C38.6260603,45.9979699 39.6352948,45.4991006 40.5859421,44.9516626 C41.5798323,44.3792465 42.5479163,43.7346713 43.4643877,43.0352829 C44.1025699,42.5412705 44.7086685,42.0312998 45.2645496,41.5199414 C45.320347,41.427661 45.3754468,41.3346867 45.4291518,41.2417125 C45.8587913,40.4993062 46.2563474,39.7034743 46.6099631,38.8778075 C47.0375103,37.8557846 47.3918234,36.7789485 47.6715076,35.6563191 Z M6.80274112,38.9846585 C6.93107501,39.1803207 7.06080387,39.3752891 7.19192764,39.5688698 C7.55042559,40.102431 7.86149579,40.5374672 8.17117107,40.9371177 C8.58197903,41.4540268 9.04788688,41.9757928 9.59330594,42.5287814 C10.1443047,43.0887084 10.6722871,43.5639873 11.2079417,43.9809837 C12.2262432,44.7497559 13.4544823,45.4269415 15.0698155,46.1082901 C15.4464476,46.2644036 15.8286594,46.412191 16.2143586,46.5523462 C15.9493212,46.3740299 15.6898635,46.1936321 15.4366831,46.0111528 C12.6579752,44.0108187 10.2998398,41.6476075 8.42783886,38.9860462 C6.86760553,36.767847 5.63448417,34.2825204 4.81007838,31.7097703 C4.84216185,32.0823611 4.88191746,32.4535643 4.9293452,32.8212982 C5.17624846,34.5905844 5.65052591,36.3286478 6.33822821,37.9848384 C6.48051144,38.3171866 6.63744148,38.6543917 6.80274112,38.9846585 Z M51.6017332,34.0889397 C51.5626751,34.8334276 51.4922309,35.5675078 51.3931907,36.2717531 C51.2585796,37.2257799 51.1044394,38.0063473 50.9084512,38.7293262 C50.6985137,39.5091998 50.4202244,40.3001747 50.081953,41.0807421 C49.4347038,42.5704117 48.5635677,43.967107 47.4922587,45.2340546 C47.1205088,45.6732538 46.7243477,46.0978825 46.3044727,46.5065529 C46.466285,46.3892943 46.6260049,46.2699543 46.7843298,46.1492265 L46.7843298,46.1492265 C48.0369803,45.1716092 49.1445576,44.0732641 50.0777682,42.8819448 C50.8931069,41.8169039 51.5696498,40.6706841 52.0871702,39.4758956 C52.5956235,38.2519659 52.953424,36.9308989 53.1480172,35.5529372 C53.3293586,34.1423652 53.3300561,32.7137534 53.1480172,31.3115074 L53.1473197,31.3073444 L53.1466223,31.3024875 L53.1445299,31.2893046 L53.1445299,31.2858354 C53.025263,30.4573932 52.8571735,29.6650306 52.6444462,28.9295626 C52.5698172,28.6700673 52.4868187,28.406409 52.396148,28.1399753 C52.4296264,30.1930411 52.1813282,32.1295421 51.6533458,33.9175618 C51.6359091,33.9751503 51.6191699,34.032045 51.6017332,34.0889397 Z M5.6191399,40.7012129 C6.01599853,41.2084083 6.42471409,41.6850748 6.84179926,42.1249679 C6.6116352,41.7856812 6.39611795,41.4526392 6.19245764,41.1209847 C5.71539032,40.3452742 5.3331785,39.632009 5.02420069,38.9409467 C4.96700841,38.8125867 4.9105136,38.6842268 4.85541372,38.5551729 C4.80310371,38.4691371 4.7507937,38.383795 4.69918115,38.2970653 C4.28000358,37.5935139 3.89081709,36.8469445 3.54208368,36.0781724 C3.36004483,35.6764404 3.19823253,35.2934419 3.05455436,34.9236265 C3.06571383,35.0159069 3.0768733,35.1088811 3.08873023,35.2004677 C3.17661106,35.8235339 3.29169308,36.4493755 3.43188392,37.0571774 C4.00659659,38.328288 4.74242409,39.5542992 5.6191399,40.7012129 Z M49.8657383,29.2903582 C49.860856,29.5151616 49.8531839,29.7385774 49.8434194,29.9612993 C49.7632107,31.7402991 49.5483909,33.4395076 49.2066321,35.0117438 C48.9904174,36.0094824 48.7191028,36.9808552 48.3961757,37.9168423 C48.9980896,37.0238732 49.482829,36.1433931 49.8657383,35.2490363 L49.8706206,35.2379349 C49.9034015,35.1581436 49.935485,35.0783523 49.9675685,34.9978671 C50.1217086,33.2091535 50.0875327,31.29208 49.8657383,29.2903582 Z M50.5590203,24.1642853 C50.7194377,24.7755564 50.8610235,25.3958473 50.9830802,26.020995 C50.9942396,26.0771959 51.0047016,26.1333967 51.0158611,26.1902914 C50.9970295,26.0196073 50.976803,25.8482294 50.954484,25.6768515 C50.9007791,25.2938531 50.8366121,24.9039163 50.764773,24.5188364 C50.6964213,24.3994963 50.6280695,24.2815439 50.5590203,24.1642853 Z M48.2064647,18.245156 C48.4526705,18.5199157 48.695389,18.8002261 48.9283429,19.0784551 C49.0657438,19.2428946 49.2017499,19.408028 49.334966,19.5738552 C49.2456903,19.3455826 49.1536247,19.1180038 49.0580717,18.8918127 C48.5726348,17.7566942 48.0383752,16.688878 47.4720321,15.7209745 C46.8896473,14.7287866 46.2291462,13.7525569 45.508663,12.8186514 C44.1423255,11.0771188 42.5276898,9.47782289 40.7114861,8.06655702 C38.800427,6.60741635 36.6836152,5.37793596 34.4224277,4.41280773 C31.9826887,3.39633551 29.4341449,2.69625328 26.8507278,2.33407 C25.5722711,2.16616128 24.3147384,2.08081924 23.1164903,2.08081924 C22.1121381,2.08081924 21.12592,2.14048928 20.1857347,2.25913553 C19.3487745,2.37500642 18.6227115,2.51099861 17.9705801,2.67474431 C17.2396348,2.85791746 16.521244,3.09312844 15.8363316,3.3741327 C14.7057378,3.85843141 13.6553528,4.46207021 12.7200497,5.1670093 C11.705933,5.96006579 10.7741173,6.88842062 9.95598869,7.92362646 C9.48310618,8.53975433 9.03951727,9.19681863 8.62940678,9.88649329 C9.1650613,9.46810916 9.61283501,9.14755615 10.055029,8.86447037 C10.6011455,8.51477617 11.1507494,8.19561083 11.6891938,7.91599424 C12.8421064,7.31790615 14.0424469,6.82111836 15.2567366,6.43950763 C16.3015419,6.11201624 17.3895902,5.84488873 18.4901929,5.64575731 C20.6383907,4.92694146 22.8375036,4.49537442 25.026852,4.36215758 C25.4878776,4.33440407 25.9572728,4.31983348 26.4217857,4.31983348 C27.5321529,4.31983348 28.6592593,4.40031865 29.7703239,4.55990132 C29.8261213,4.5668397 29.8874984,4.57447191 29.9488754,4.58279796 C30.9525302,4.7160148 31.7706588,4.87143445 32.522528,5.07195354 C33.6775331,5.37932364 34.8325382,5.79562625 35.9561573,6.30837231 C37.2757645,6.87176852 38.5235327,7.52605746 39.6666808,8.25458704 C41.1836712,9.22040911 42.4544557,10.2160662 43.5515711,11.298453 C44.7902722,12.5203012 45.8162459,13.8323483 46.6015935,15.1978208 C47.0151914,15.9173305 47.3967057,16.676389 47.7349771,17.4548749 C47.8967894,17.715064 48.0558119,17.98011 48.2064647,18.245156 Z" id="Shape"></path>
            <path d="M22.8974858,0.555070155 C22.9742071,0.555070155 23.0516259,0.555763992 23.1283473,0.55645783 C26.5459348,0.589068202 29.9809589,1.20658375 33.1879114,2.38680167 C34.7662788,2.96823765 36.3111679,3.65652464 37.7723609,4.48982371 C39.1882186,5.29675695 40.5426992,6.21470422 41.8044167,7.24435936 C43.068924,8.27540217 44.2539202,9.40913296 45.3133723,10.6476332 C46.3763117,11.8902966 47.3395134,13.2210772 48.1674066,14.6295678 C49.0085516,16.0602611 49.7157829,17.5672766 50.3051424,19.1166161 C50.8135957,20.4529475 51.229286,21.8211955 51.5319866,23.2171969 C51.5494232,23.2463381 51.5661624,23.2761731 51.5835991,23.3053143 C51.9964995,24.0158041 52.3745265,24.7436398 52.7058232,25.495066 C53.0447921,26.2610629 53.3572573,27.0416303 53.6083453,27.8409313 C53.857341,28.6367631 54.0568165,29.4471655 54.1914276,30.2707509 C54.3288286,31.1061315 54.4215916,31.9505319 54.4397258,32.7977078 C54.4732042,34.4573675 54.2702413,36.1357609 53.8280474,37.7378321 C53.3921306,39.3183944 52.7274447,40.8337359 51.8381745,42.2158606 C50.9781979,43.5528859 49.9452495,44.7795909 48.7742027,45.8585085 C47.5766522,46.9617104 46.2417006,47.9275325 44.8383974,48.7538932 C43.4023132,49.5996813 41.8860203,50.3094773 40.3188123,50.8777304 C37.4236275,51.9254253 34.3505886,52.482577 31.2698776,52.5436347 C29.0059003,53.132009 26.6658991,53.4449298 24.3265953,53.4449298 C23.8655697,53.4449298 23.4052416,53.4324408 22.9449135,53.4081564 C19.5887031,53.2284525 16.2576015,52.439559 13.2354777,50.9589094 C11.7617303,50.2366244 10.3723764,49.3505936 9.09670955,48.3202446 C7.83289965,47.2982217 6.68347429,46.1464511 5.69516379,44.8573007 C4.70615582,43.569538 3.88453989,42.1700673 3.25681974,40.6741533 C2.84531431,39.6916791 2.50774036,38.6779822 2.24967764,37.6441641 C2.04531985,37.1987203 1.85770128,36.7449504 1.6889143,36.2842422 C1.1148991,34.7210259 0.763375816,33.0884258 0.624579917,31.4294598 C0.483691617,29.7427404 0.571572438,28.0476949 0.847769302,26.3783214 C1.11768897,24.7533535 1.57731961,23.1512823 2.20922456,21.6290024 C2.77138283,20.2753251 3.43885858,18.9653595 4.21374423,17.7199209 C4.29813772,17.2127255 4.39438814,16.7076117 4.5045879,16.205967 C4.36509454,16.3606928 4.22560117,16.5161125 4.09029261,16.6743074 C4.00520165,16.7742201 3.85175895,16.8255641 3.72412252,16.8255641 C3.58741902,16.8255641 3.45420285,16.7707509 3.35795243,16.6743074 C3.26100454,16.577864 3.20590466,16.4460348 3.20590466,16.3100427 C3.20590466,16.1622552 3.26728174,16.0560981 3.35795243,15.9457779 C3.3732967,15.9256566 3.38933844,15.906923 3.40538018,15.8874955 C3.80154134,15.3678111 4.1914253,14.8418821 4.59735099,14.3312176 C4.79961637,14.0765791 5.00746149,13.8267976 5.21949141,13.5797913 C5.64006391,12.2996608 6.16455896,11.0528345 6.80692592,9.85943362 C7.19123017,9.14547464 7.61389507,8.45163694 8.07980291,7.78763427 C8.55687023,7.10836717 9.06881088,6.44783368 9.63515395,5.83933803 C10.737849,4.65495708 12.0079361,3.60032379 13.4251887,2.80449196 C14.8633653,1.99617104 16.4208088,1.39877679 18.0382343,1.05879632 C19.6347359,0.720897363 21.2647159,0.555070155 22.8974858,0.555070155 M7.67945695,11.033407 C7.96960315,10.7780747 8.26393416,10.528987 8.56663476,10.2882253 C9.09461715,9.86775968 9.63445648,9.46186462 10.2042869,9.09759984 C10.727387,8.76247623 11.2644365,8.44816775 11.8168302,8.16161279 C12.9453315,7.57601377 14.1247479,7.08547052 15.3390377,6.70385979 C16.3957,6.37289921 17.4704963,6.11062857 18.5585446,5.91496634 C20.65234,5.21280259 22.8326213,4.77360333 25.0428937,4.63899882 C25.5018269,4.61124531 25.9607601,4.59736856 26.4203907,4.59736856 C27.5272706,4.59736856 28.633453,4.67785373 29.7291734,4.83466105 C29.789853,4.84229326 29.8505326,4.84992548 29.9105148,4.85755769 C30.7656091,4.97134707 31.6144262,5.11774683 32.449294,5.33977489 C33.6140636,5.64992034 34.7481447,6.06205993 35.8417727,6.5623169 C37.1153471,7.10559182 38.347771,7.74461633 39.514633,8.48841034 C40.8872478,9.361952 42.1956955,10.3534461 43.3534905,11.4955029 C44.5161677,12.6424166 45.5442338,13.9211595 46.3574801,15.3352007 C46.7752628,16.0623426 47.1511974,16.8137688 47.485284,17.5839287 C47.6554659,17.8545254 47.8200681,18.1285913 47.9776956,18.4061263 C48.2273887,18.6850491 48.472897,18.967441 48.7135231,19.2546898 C49.2317409,19.8749807 49.7290348,20.5126176 50.1998249,21.1696819 C49.9403672,20.3627486 49.6446413,19.5669168 49.315437,18.783574 C48.8460418,17.685229 48.3166645,16.6118621 47.7126582,15.5801254 C47.1149291,14.5615717 46.4509407,13.5839544 45.72976,12.6479673 C44.319482,10.8509277 42.6881071,9.24816261 40.883063,7.84591664 C38.9315508,6.35555327 36.79242,5.11982834 34.53193,4.15608778 C32.0838214,3.13614637 29.516446,2.42635041 26.8890884,2.05722876 C25.6413203,1.89348307 24.3782078,1.80120265 23.1157929,1.80120265 C22.123995,1.80120265 21.1321972,1.85809734 20.1494664,1.98160045 C19.3948073,2.08567611 18.6408457,2.21750527 17.9008334,2.40345377 C17.1587287,2.58940227 16.4354556,2.82530709 15.7282242,3.11533124 C14.5990254,3.59893612 13.5305062,4.20465642 12.5498678,4.94359357 C11.5022727,5.76232204 10.5586,6.70802282 9.73489171,7.75016704 C8.94675419,8.77912833 8.26323669,9.88024875 7.67945695,11.033407 M21.6852884,6.86454973 C21.840126,6.85954973 21.9956611,6.85654973 22.1504988,6.85654973 C22.1811873,6.85654973 22.2125733,6.85654973 22.2432619,6.85654973 C22.303244,6.83054973 22.3639236,6.80554973 22.4246033,6.78054973 C22.2007164,6.79554973 21.977527,6.81454973 21.7543376,6.83654973 C21.747363,6.83954973 21.7396908,6.84254973 21.7327162,6.84554973 C21.7166744,6.85154973 21.7013301,6.85854973 21.6852884,6.86454973 M35.5230304,9.44451868 C35.4191078,9.32379092 35.3116979,9.20722619 35.1994057,9.09551832 C32.670391,8.10333042 30.0297816,7.36161793 27.3368622,6.99041476 C27.0069603,6.94809066 26.6763611,6.91062343 26.3450643,6.87801305 C26.1365217,6.89744051 25.9279791,6.92033715 25.720134,6.94670299 C25.6273709,6.95919206 25.5346079,6.97306882 25.4418448,6.98694557 C26.0765396,7.04800329 26.7105369,7.12571311 27.3424419,7.22007504 C29.021942,7.46985661 30.6944675,7.80636789 32.3202627,8.29899265 C33.4055211,8.62717788 34.4768301,9.00740094 35.5230304,9.44451868 M27.4438368,7.02081433 C27.4105035,7.01481433 27.3771702,7.00981433 27.3438368,7.00381433 C27.3771702,7.00981433 27.4105035,7.01581433 27.4438368,7.02081433 M35.6918173,7.99509174 C35.3388991,7.82093848 34.9817961,7.65649895 34.6198108,7.50177314 C34.1950535,7.32692604 33.7647165,7.16387418 33.3287997,7.01608676 C33.5994168,7.13265149 33.8637568,7.2617053 34.121122,7.40463586 C34.5765679,7.56421853 35.0285264,7.73282109 35.4783925,7.91044354 C35.5495341,7.93819705 35.6206757,7.9666444 35.6918173,7.99509174 M19.7212218,8.65909441 C19.7288939,8.65562522 19.7372635,8.65215604 19.7449357,8.64868685 C19.7295914,8.65493139 19.7149446,8.66117593 19.6996003,8.6681143 C19.6793738,8.67644036 19.6584498,8.68546025 19.6382233,8.6937863 C19.6521726,8.6882356 19.6661219,8.68199106 19.6800713,8.67644036 C18.2384073,9.2884052 16.8239446,9.98016138 15.4583045,10.7489335 C14.1261429,11.4975844 12.8302495,12.3183944 11.6145648,13.2446677 C10.4246864,14.1688595 9.32408374,15.197127 8.33158844,16.3246132 C7.69619616,17.1683199 7.09916455,18.0418615 6.54746826,18.9424629 C5.8904545,20.5417588 5.37990878,22.2021124 5.02071336,23.8929948 C5.04233483,24.9517911 5.11975365,26.0085059 5.25785208,27.0589762 C5.57589696,29.3174179 6.17153363,31.5259033 7.0538292,33.6317007 C7.91938554,35.64383 9.03393754,37.5387007 10.3709815,39.2767641 C11.8705351,41.1910623 13.6065301,42.9055353 15.5273537,44.4014493 C17.5214114,45.9285861 19.706575,47.211492 21.9963586,48.2536362 C23.0892891,48.3917099 24.1898918,48.4631752 25.289797,48.4631752 C26.3436694,48.4631752 27.3975418,48.3972606 28.4430445,48.2619623 C28.4325825,48.26335 28.422818,48.2647376 28.412356,48.2661253 C28.4283977,48.2640438 28.4444395,48.2619623 28.4604812,48.2591869 C28.4786154,48.2571054 28.4967495,48.2543301 28.5141862,48.2522485 C28.5002368,48.2543301 28.4862875,48.2557177 28.4716407,48.2577992 C30.7418952,47.9407154 32.9570499,47.3231999 35.0717693,46.4448014 C36.9793411,45.6350928 38.7871751,44.6116822 40.4324994,43.3530606 C41.0720765,42.8548851 41.6879397,42.3220178 42.2626524,41.7509894 C42.8220208,41.1945315 43.3437259,40.602688 43.8291629,39.9823971 C44.8397923,38.6634116 45.6593158,37.2153724 46.3086575,35.6882356 C46.2919182,35.7263967 46.2758765,35.7645577 46.2591373,35.8027188 C47.0256534,33.9772318 47.5306193,32.0608521 47.8061187,30.1028422 C47.9358476,29.1057974 48.0174512,28.1004266 48.0241625,27.0957496 C48.0293081,26.0889911 47.9665361,25.0829265 47.8361098,24.084494 C47.5857192,22.3498998 47.1037696,20.6631803 46.4265293,19.0465385 C46.2458854,18.6302359 46.0526871,18.2208717 45.8455395,17.8184458 C44.7805076,16.7783831 43.6499139,15.804235 42.4698,14.8953076 C40.8774832,13.683867 39.1875211,12.5924603 37.4110731,11.6654931 C37.4417616,11.7452845 37.4731476,11.8257696 37.5045336,11.905561 C37.5345247,11.9680064 37.569398,12.0283703 37.5979942,12.0915095 C37.6551865,12.2157064 37.6530941,12.3516986 37.5512639,12.4536928 C37.4947691,12.5098936 37.4145604,12.5411163 37.3343517,12.5411163 C37.2827392,12.5411163 37.2318241,12.5279334 37.1871862,12.5001799 C37.0944231,12.4418975 37.0386258,12.3454541 36.992593,12.2490106 C36.9458627,12.1504857 36.9040147,12.0498792 36.8614692,11.9492728 C36.7589416,11.7140618 36.6626912,11.4767693 36.5650458,11.2401706 C36.1054152,11.0174487 35.6395073,10.8051344 35.1687172,10.6053091 C33.7891278,10.0321992 32.3676904,9.54928817 30.9190518,9.17808501 C29.5178409,8.81937092 28.0936137,8.55363108 26.6610168,8.35588734 C25.2486465,8.17063268 23.8188394,8.05892481 22.3904274,8.05892481 C21.9949637,8.05892481 21.5995,8.06725086 21.2040363,8.08529064 C20.706045,8.26291309 20.2108435,8.45579997 19.7212218,8.65909441 M14.480456,10.2459012 C15.0042536,9.94477566 15.5357233,9.65613918 16.0727728,9.38068561 C16.6760816,9.07054017 17.2863651,8.7728838 17.9029258,8.48979802 C17.6476529,8.54391736 17.3944725,8.60428124 17.1426869,8.67227733 C17.0945617,8.68546025 17.0464365,8.69864316 16.9990088,8.71182608 C16.1285702,9.17114663 15.2867277,9.68181117 14.480456,10.2459012 M40.9493223,12.3676569 C40.8049467,12.2524798 40.6598736,12.1379966 40.514103,12.0249011 C39.8187286,11.4961967 39.0968504,11.0014905 38.3380065,10.5657604 C37.748647,10.2264738 37.1397585,9.9253482 36.5197105,9.64711929 C36.5531889,9.70193247 36.5852723,9.75813332 36.6159609,9.81502801 C36.6424646,9.86429049 36.6689684,9.9142468 36.6947746,9.96420311 C36.8140415,10.020404 36.9326108,10.0766048 37.0511802,10.1341933 C38.3986861,10.7905638 39.7022516,11.5392147 40.9493223,12.3676569 M6.14712229,14.9695482 C6.5969884,14.3957445 7.06498867,13.8372051 7.54833319,13.2939302 C8.26672402,12.4863031 9.02556794,11.7161433 9.83044466,10.9952459 C9.76558025,11.0438146 9.70071583,11.0923832 9.63585142,11.1409518 C8.62173464,11.931233 7.65992788,12.7964486 6.77763231,13.7296603 C6.65348321,13.8607956 6.53003158,13.9919309 6.40727742,14.1244539 C6.31590927,14.4047644 6.22942338,14.6864625 6.14712229,14.9695482 M5.33666583,18.7218225 C5.36595944,18.6718662 5.39455558,18.6226037 5.42454666,18.5726474 C5.6003083,18.138305 5.78792687,17.7088194 5.98530999,17.2834969 C5.79699394,17.5554813 5.61356017,17.830241 5.43431119,18.10847 C5.39943785,18.3131521 5.36735438,18.5171404 5.33666583,18.7218225 M1.67566243,29.8287763 C1.79702166,28.4612222 2.02300091,27.1006065 2.3703394,25.773295 C2.47216955,25.3826643 2.58446171,24.9941152 2.70512348,24.6083415 C2.7867271,24.3086036 2.87739778,24.0116411 2.97713554,23.7181477 C3.21845907,23.0034949 3.49674833,22.302025 3.80781854,21.6158195 C3.81758307,21.3847715 3.83083494,21.1537236 3.84548175,20.9226756 C3.67320744,21.2765329 3.50930273,21.6338593 3.35376763,21.9960426 C2.62351986,23.7500642 2.105302,25.5838773 1.84444941,27.4648713 C1.74401418,28.2489078 1.68193963,29.0384951 1.67566243,29.8287763 M3.32102915,22.111307 C3.33802915,22.0779737 3.35402915,22.0446403 3.37002915,22.011307 C3.35302915,22.0446403 3.33702915,22.0779737 3.32102915,22.111307 M51.3101921,30.7467235 C51.4922309,29.0489027 51.4524753,27.3344298 51.2299834,25.6414658 C51.1727911,25.2334892 51.1058343,24.8269003 51.029113,24.4230868 C50.9007791,24.1948142 50.7682604,23.9686231 50.6315569,23.7445135 C50.3428056,23.2733977 50.0408025,22.810608 49.7262449,22.3561443 C50.1370529,23.5710541 50.4634674,24.8157989 50.7082782,26.0737267 C51.008189,27.6147402 51.2209164,29.1786504 51.3101921,30.7467235 M47.3862437,39.7180449 C47.5557281,39.5175258 47.7217253,39.3142314 47.8828401,39.1067739 C47.8640085,39.1296706 47.8458744,39.1539549 47.8263453,39.1782392 C48.737237,37.9966336 49.5337441,36.7303798 50.1217086,35.357275 C50.114734,35.3739271 50.1077593,35.3912731 50.1007846,35.4079252 C50.1091542,35.3884977 50.1175238,35.3683764 50.125196,35.348949 C50.1286833,35.3413167 50.1321706,35.3329907 50.1349605,35.3253585 C50.1321706,35.331603 50.1293808,35.3371537 50.1272884,35.3433983 C50.165649,35.2497302 50.2033122,35.1560621 50.240278,35.0617002 C50.4292915,32.9239862 50.3421081,30.7640695 50.0673062,28.637457 C49.9075863,27.4627897 49.6920691,26.2943671 49.4082001,25.1432903 C49.5776845,26.7398109 49.6348768,28.3446574 49.5637352,29.9488102 C49.4877113,31.6313666 49.2910256,33.3062908 48.9325277,34.9527676 C48.5796095,36.579817 48.0753409,38.16593 47.3981006,39.6889037 C47.3946133,39.6993113 47.3904285,39.7083312 47.3862437,39.7180449 M3.50860527,32.4251169 C3.47024459,32.1045639 3.43746365,31.7826232 3.41026244,31.4606825 C3.26867668,29.7475973 3.28402095,28.0199414 3.47512686,26.3110192 C3.50511793,26.042504 3.53859634,25.7739888 3.57625955,25.5061674 C3.54068874,25.6268952 3.5058154,25.747623 3.47233699,25.8690446 C3.36353217,26.2638382 3.26518934,26.6607134 3.17661106,27.05967 C3.02805062,28.3245362 3.05246196,29.594953 3.21497173,30.8584314 C3.28960068,31.3864419 3.38724604,31.9089017 3.50860527,32.4251169 M42.3386762,49.1618698 C43.9707486,48.3944853 45.5219149,47.4640489 46.9538143,46.3684792 C46.9307979,46.3858252 46.9091764,46.4031711 46.88616,46.4212109 C46.8819752,46.4246801 46.8777904,46.4274554 46.8736056,46.4309246 C46.8777904,46.4274554 46.8819752,46.4246801 46.88616,46.4212109 C48.1562471,45.4387367 49.3070674,44.3161073 50.2967728,43.0526289 C51.1149014,41.983425 51.807486,40.820553 52.3417456,39.5862158 C52.8732153,38.3074729 53.2289234,36.9607339 53.4228191,35.5917922 C53.6083453,34.1534666 53.6090428,32.7054274 53.4221217,31.2671018 C53.4221217,31.2671018 53.4221217,31.2677957 53.4221217,31.2677957 C53.4242141,31.2830601 53.4263065,31.2983245 53.4283989,31.3135889 C53.4263065,31.2983245 53.4242141,31.2830601 53.4221217,31.2677957 C53.4221217,31.2677957 53.4221217,31.2671018 53.4221217,31.2671018 C53.4221217,31.2671018 53.4221217,31.2671018 53.4221217,31.2677957 C53.4221217,31.2677957 53.4221217,31.2671018 53.4221217,31.2671018 C53.4221217,31.2671018 53.4221217,31.2671018 53.4221217,31.2671018 C53.4221217,31.2671018 53.4221217,31.2671018 53.4221217,31.2671018 C53.4221217,31.2671018 53.4221217,31.2671018 53.4221217,31.2671018 C53.4221217,31.2671018 53.4221217,31.266408 53.4221217,31.266408 C53.4221217,31.266408 53.4221217,31.266408 53.4221217,31.2657141 C53.4193318,31.2414298 53.4158445,31.2171455 53.4123571,31.1928612 C53.4158445,31.2171455 53.4186343,31.2414298 53.4221217,31.2657141 C53.3056447,30.4518425 53.1396476,29.6442154 52.911576,28.8539343 C52.6953612,28.1045896 52.4296264,27.3712032 52.1283207,26.6523873 C52.0934474,26.5712083 52.0578766,26.4900293 52.0223057,26.4088503 C52.2489825,28.9018091 52.0962372,31.4322352 51.3848211,33.8405458 C51.365292,33.9078481 51.3450654,33.9744565 51.3241414,34.0410649 C51.2864782,34.7737575 51.218824,35.5050624 51.1162963,36.2342859 C51.0012143,37.0495452 50.8540488,37.8634168 50.6385315,38.6578609 C50.4258042,39.4488359 50.1510022,40.2196896 49.8252852,40.9711158 C49.1822208,42.4510716 48.3222442,43.8220949 47.2781363,45.0557383 C46.2319361,46.2928509 45.0106717,47.3814822 43.67851,48.3077556 C43.2439882,48.609575 42.796912,48.8947423 42.3386762,49.1618698 M50.0818196,28.6056278 C50.0758196,28.5722945 50.0698196,28.5389611 50.0628196,28.5056278 C50.0698196,28.5389611 50.0758196,28.5722945 50.0818196,28.6056278 M18.2377099,47.4883332 C17.3317004,46.9630981 16.4487074,46.3969266 15.5998903,45.7863494 C12.9258025,43.8609498 10.5509279,41.5199414 8.65591052,38.8271573 C6.74554884,36.1114766 5.34015317,33.0301434 4.56457005,29.8051858 C4.51923471,29.6171558 4.47599176,29.4291258 4.43484122,29.2397081 C4.42507668,30.4476795 4.4962183,31.6563448 4.65175341,32.8573778 C4.90284146,34.6564989 5.38200118,36.4119083 6.07946801,38.0909955 C6.22872591,38.4399959 6.38914328,38.7841394 6.56002266,39.1227322 C6.69184389,39.3239451 6.82506005,39.5237704 6.95967115,39.7235956 C7.27562366,40.1940176 7.60203813,40.6575012 7.94937662,41.1064141 C8.39854526,41.6718919 8.8853771,42.2082284 9.39313296,42.723056 C9.91135081,43.2489849 10.4518876,43.7450789 11.0349699,44.1995426 C12.231823,45.1036131 13.5793289,45.7814925 14.9603132,46.3636223 C16.0288324,46.805597 17.1238553,47.181657 18.2377099,47.4883332 M3.23197245,30.8696202 C3.22697245,30.8362869 3.22097245,30.8029535 3.21497245,30.7696202 C3.21997245,30.8029535 3.22597245,30.8362869 3.23197245,30.8696202 M29.1154026,48.9273526 C29.3588185,48.9016806 29.6029319,48.8725394 29.8456503,48.8406229 C29.8358858,48.8420106 29.8261213,48.8433983 29.8156593,48.8447859 C29.8282137,48.8433983 29.8407681,48.8413167 29.8533225,48.8392352 C29.8770364,48.835766 29.9007502,48.8329907 29.9244641,48.8295215 C29.9084224,48.831603 29.8930781,48.8336845 29.8770364,48.835766 C32.5148559,48.4687259 35.0975756,47.7721129 37.5561462,46.7528653 C37.5491715,46.7556406 37.5421968,46.7591098 37.5352222,46.7618852 C37.5512639,46.7549468 37.5673056,46.7480084 37.5833474,46.7417639 C37.5986917,46.7355194 37.6140359,46.7292748 37.6293802,46.7223364 C37.6217081,46.7258056 37.6140359,46.728581 37.6063638,46.7313563 C38.674883,46.2775865 39.7189908,45.7696973 40.724738,45.1903428 C41.7360649,44.6075191 42.7062413,43.9615563 43.6331747,43.2538418 C44.2699619,42.761217 44.8893124,42.2422264 45.4821593,41.6947885 C45.5456287,41.590019 45.6084008,41.4845557 45.6704753,41.3783985 C46.118249,40.6054633 46.5144102,39.8054685 46.8659335,38.9839646 C47.6589532,37.0890939 48.1729863,35.0873722 48.453368,33.0551216 C48.4491832,33.0912011 48.4436034,33.1272807 48.4394186,33.1633602 C48.5000982,32.7116719 48.5496184,32.2585959 48.5886765,31.804826 C48.1604319,33.715655 47.5027207,35.5730585 46.5876442,37.3097343 C45.8357749,38.7383461 44.920001,40.0788405 43.8382299,41.2805674 C42.7543665,42.483682 41.524035,43.5452536 40.198848,44.47569 C38.8366953,45.433186 37.3755023,46.2533022 35.8487474,46.9235494 C34.3178077,47.5951843 32.7324656,48.1495606 31.103183,48.5332528 C30.4475642,48.6886725 29.7835758,48.8211955 29.1154026,48.9273526 M5.39734545,40.8698155 L5.39734545,40.8698155 C5.39734545,40.8698155 5.39734545,40.8698155 5.39734545,40.8698155 C5.39734545,40.8698155 5.39734545,40.8698155 5.39734545,40.8698155 C5.96438598,41.5948759 6.5760644,42.2852444 7.24144778,42.9221874 C7.8719578,43.5272139 8.53734116,44.0919977 9.22853079,44.6262528 C8.68520412,44.1246081 8.21301908,43.5619057 7.77640484,42.9658992 C7.30282486,42.3199363 6.84947139,41.6573213 6.42959636,40.9752788 C6.00274666,40.282135 5.61007283,39.5702575 5.27877609,38.8271573 C5.21949141,38.6939405 5.16090419,38.5607236 5.10371191,38.4261191 C5.04791457,38.3359202 4.99281469,38.2450275 4.93841227,38.1534409 C4.51714231,37.4457265 4.13632542,36.71234 3.7959616,35.9623015 C3.45211045,35.2053246 3.14452758,34.4323894 2.90599392,33.6351699 C2.79997897,33.2806188 2.70372854,32.9232924 2.61863759,32.5624968 C2.63258693,33.4547721 2.69675387,34.3463535 2.8118359,35.2344657 C2.90180912,35.8769594 3.01968102,36.5139025 3.16614905,37.1446009 C3.76248319,38.4698309 4.51365497,39.7131881 5.39734545,40.8698155 M37.1760268,50.2824176 C37.2743696,50.2574395 37.3720149,50.2310736 37.4703578,50.2033201 C38.2208321,49.9937812 38.9545672,49.7370612 39.6743529,49.438711 C41.1467054,48.8066249 42.5332695,48.002467 43.8082389,47.0359511 C44.972311,46.1325744 46.0289733,45.1043069 46.9391675,43.9469857 C47.7433467,42.8979031 48.4143098,41.7641723 48.9422922,40.5534255 C49.2498751,39.8207329 49.5114251,39.0693067 49.7053209,38.2991468 C49.787622,37.9723493 49.8601586,37.6441641 49.925023,37.3138973 C49.7541436,37.6177982 49.5734997,37.9161484 49.3823938,38.2089479 C48.5077704,39.5515239 47.4817967,40.7858611 46.3281865,41.8987768 C46.2779689,41.9473454 46.2270538,41.9959141 46.1761388,42.0444827 C44.9778907,44.0413476 43.458808,45.8418564 41.660041,47.3391581 C41.0379006,47.8581487 40.3913488,48.3514673 39.7155035,48.8003803 C39.0264063,49.2576194 38.3149901,49.6794727 37.5854398,50.0687156 C37.4494338,50.1401809 37.3127303,50.2116462 37.1760268,50.2824176 M5.50323592,41.0003443 C5.47723592,40.9663638 5.45123592,40.9343249 5.42423592,40.9003443 C5.45023592,40.9343249 5.47623592,40.9673346 5.50323592,41.0003443 M24.4061065,52.5755512 C25.4383574,52.5755512 26.4706083,52.5158812 27.4986745,52.3979288 C25.0463811,52.1717377 22.6157092,51.6971527 20.2568763,50.9984581 C18.6401482,50.5190163 17.0499238,49.9486817 15.50085,49.2860667 C13.9761875,48.6345531 12.4836085,47.8872899 11.0621711,47.0345634 C9.66165769,46.1943259 8.33019351,45.2285039 7.10962655,44.1440356 C6.32288394,43.4446472 5.58984629,42.6883641 4.92027814,41.8786555 C5.39804292,42.761217 5.94694931,43.6042298 6.55862772,44.4042247 C7.60552547,45.7419438 8.83027722,46.9318754 10.1729009,47.9747135 C11.6361863,49.0869353 13.229898,50.0062702 14.9233475,50.7243922 C16.878347,51.5327132 18.9309919,52.0711312 21.0282747,52.3597677 C22.1498013,52.5040859 23.2783027,52.5755512 24.4061065,52.5755512 M32.7917502,50.8256926 C33.2039531,50.8256926 33.6147611,50.8118158 34.0248716,50.7840623 C34.2982786,50.6799866 34.5702907,50.5724418 34.8409078,50.4600401 C36.8252009,49.6204965 38.7334702,48.5714139 40.4485411,47.2690805 C40.4345918,47.2794881 40.4213399,47.2898957 40.4073906,47.3009971 C40.4227349,47.2892018 40.4387766,47.2767128 40.4541209,47.2649175 C40.4659778,47.2558976 40.4778347,47.2468777 40.4903891,47.237164 C40.4799271,47.2447962 40.4694651,47.2531223 40.4590031,47.2607545 C41.1494953,46.7264995 41.8134837,46.1582464 42.4342292,45.5462815 C42.9078092,45.0800226 43.3562804,44.590867 43.7810377,44.0815902 C43.373717,44.3896541 42.9573293,44.6866166 42.532572,44.9703963 C41.1662345,45.8841805 39.714806,46.6682171 38.2068827,47.3245876 C35.099668,48.6761834 31.7853056,49.5289099 28.4060788,49.8237909 C27.7999801,49.8765226 27.193184,49.9119083 26.5856904,49.9285604 C27.675831,50.2303798 28.7841058,50.4669785 29.9077249,50.6251735 C30.8032723,50.742432 31.7071893,50.8159788 32.6111063,50.8249987 C32.6717859,50.8256926 32.7317681,50.8256926 32.7917502,50.8256926 M30.6602916,51.695765 C30.211123,51.6527471 29.7626518,51.5965462 29.3169705,51.529244 C27.6611842,51.2794624 26.0291118,50.8714858 24.4472571,50.3247417 C23.9939036,50.1679344 23.5440375,50.002801 23.0969613,49.8279539 C21.4300155,49.6864111 19.7714394,49.4192835 18.1505265,49.0099193 C16.9118254,48.6963047 15.6933509,48.3028987 14.513237,47.8151308 C15.101899,48.1009919 15.6968382,48.3722825 16.300147,48.6283086 C19.5070995,49.9653338 22.8702846,50.9269929 26.3171656,51.3988025 C27.6855956,51.5778126 29.0665799,51.6811944 30.4468668,51.6950712 C30.5180084,51.6950712 30.58915,51.695765 30.6602916,51.695765 M22.8974858,0 C21.2165907,0 19.5426703,0.172765586 17.9231523,0.514133731 C16.2708534,0.861746415 14.6652847,1.4688544 13.1510843,2.32019325 C11.7589405,3.10145449 10.4386357,4.15886313 9.22643839,5.46119648 C8.69357373,6.03430642 8.16907867,6.69067688 7.62296214,7.46916277 C7.16263403,8.12414555 6.72253243,8.84018605 6.3152118,9.59646914 C5.69516379,10.7475459 5.16020673,11.9936784 4.72359249,13.3022563 C4.51504991,13.5464871 4.3302212,13.7712905 4.15934182,13.9870741 C3.87128802,14.3492573 3.58881395,14.722542 3.31610442,15.0833376 C3.19962746,15.2366757 3.08384797,15.3907077 2.96667354,15.5440458 C2.95132927,15.5627795 2.935985,15.5815131 2.92133819,15.6002467 C2.80207137,15.7459526 2.64723373,15.9763067 2.64723373,16.3100427 C2.64723373,16.5917408 2.76231576,16.8671943 2.9631862,17.0670196 C3.15708198,17.2612941 3.42700165,17.3757774 3.70529091,17.3806342 C3.69692131,17.4278152 3.68924918,17.4743023 3.68087957,17.5214833 C2.92691793,18.745413 2.25804724,20.0553785 1.6930991,21.4173819 C1.04375748,22.9812921 0.574362305,24.6201367 0.296770506,26.2874287 C0.00453190289,28.0532456 -0.0721894485,29.7989413 0.0680013847,31.4752531 C0.213074486,33.2063782 0.58203444,34.8882407 1.16441924,36.4743537 C1.33181128,36.9302051 1.5187324,37.3853626 1.72030031,37.828031 C1.98254784,38.8653184 2.32570152,39.8949735 2.74139175,40.8878553 C3.37817897,42.406666 4.2228113,43.8560929 5.25087741,45.1945058 C6.23081831,46.4725549 7.40604995,47.6694249 8.74379134,48.7511178 C10.0515416,49.8071388 11.4792563,50.7181477 12.987877,51.4570849 C15.9890768,52.9273269 19.328548,53.7703397 22.914225,53.9625328 C23.3808303,53.9875109 23.8551077,54 24.3258978,54 C26.656832,54 29.0177572,53.6960991 31.3459015,53.0973172 C34.5054263,53.0272396 37.5875322,52.4562111 40.5085233,51.3994963 C42.1161843,50.8166727 43.668048,50.0874492 45.1215689,49.2312535 C46.6120555,48.3535489 47.9686285,47.3558102 49.1522297,46.2657912 C50.3602423,45.1528756 51.4217868,43.8907848 52.3068722,42.5149047 C53.2135791,41.1057203 53.9061637,39.5473608 54.3643994,37.8849257 C54.8191477,36.2384489 55.0311777,34.5225883 54.9963043,32.7866064 C54.9788676,31.9713471 54.8951716,31.1193144 54.7410315,30.1812458 C54.6071178,29.3652927 54.4048524,28.5222799 54.139815,27.6764918 C53.9075586,26.9354731 53.6132276,26.1715578 53.214974,25.2716503 C52.8878621,24.5306316 52.5119275,23.7965514 52.0648512,23.028473 C52.0620614,23.0236162 52.0592715,23.0194532 52.0564816,23.0145963 C51.7593607,21.6657758 51.3450654,20.2892018 50.8254527,18.9216477 C50.2061021,17.2932107 49.4730645,15.7549725 48.6472637,14.350645 C47.8249503,12.9525621 46.8457069,11.5863956 45.7360372,10.2889192 C44.6996015,9.07609087 43.4950763,7.90766819 42.1559399,6.8162615 C40.9011971,5.79215706 39.5188178,4.84784396 38.0471628,4.00968803 C36.6375824,3.20553014 35.1108275,2.50475407 33.3790173,1.86711723 C30.1553256,0.680654777 26.6114966,0.0353857224 23.1311372,0.00208151308 C23.0544158,0 22.975602,0 22.8974858,0 L22.8974858,0 Z M20.2227005,2.53320142 C21.1503313,2.41663669 22.123995,2.35766048 23.1150954,2.35766048 C24.300789,2.35766048 25.5450699,2.44230868 26.8130646,2.60882973 C29.3713729,2.96823765 31.8955054,3.66138151 34.3143203,4.66883384 C36.5531889,5.6235545 38.6476818,6.84123966 40.5413042,8.28650357 C41.2785267,8.85961351 41.9822707,9.46394614 42.649049,10.0960323 C41.8058116,9.37721643 40.8691136,8.69170478 39.8152412,8.02145757 C38.6609336,7.28598962 37.4006111,6.62406846 36.067752,6.05581539 C34.930881,5.53682479 33.7619266,5.11566531 32.5929722,4.80482603 C31.8285485,4.60153158 30.999958,4.44333659 29.9844462,4.30873208 C29.9237666,4.30040602 29.863087,4.29277381 29.8024074,4.28583543 C28.6801833,4.12555892 27.5419174,4.04368608 26.4196933,4.04368608 C25.9496006,4.04368608 25.4746257,4.05825667 25.0080204,4.08670401 C22.8005379,4.22061469 20.5832908,4.65495708 18.4183538,5.37724212 C17.3128688,5.57845505 16.2199383,5.84697024 15.1709482,6.17584931 C13.9413142,6.5623169 12.7256295,7.06534923 11.55807,7.6703757 C11.0119535,7.95415532 10.4546775,8.27748368 9.90158628,8.63203474 C9.82486493,8.68129722 9.74814358,8.73125353 9.67072476,8.78259752 C9.83532693,8.54738654 10.0034164,8.31703243 10.1756907,8.09222902 C10.9784751,7.07645063 11.8921566,6.16613558 12.8902317,5.38556818 C13.8060056,4.69658735 14.8333742,4.10543763 15.9444389,3.62946497 C16.6160995,3.35470525 17.320541,3.12435113 18.0368394,2.94464717 C18.6792064,2.78228915 19.3941099,2.64837848 20.2227005,2.53320142 L20.2227005,2.53320142 Z M21.315631,8.63550393 C21.6678517,8.62093334 22.029837,8.61330113 22.3925198,8.61330113 C23.7156144,8.61330113 25.0875316,8.70905073 26.5877828,8.90540679 C28.0936137,9.11286426 29.4662284,9.37791026 30.7823483,9.71511538 C32.1626352,10.0689726 33.5659384,10.5400884 34.9538974,11.1166675 C35.3458738,11.2831886 35.7413375,11.4615049 36.1312214,11.6467595 C36.2016656,11.8174436 36.2742021,11.9929845 36.3495286,12.166444 C36.393469,12.2712134 36.4381068,12.3773706 36.4890219,12.4856093 C36.5559787,12.6271522 36.6703633,12.8304466 36.8893679,12.9685203 C37.023979,13.0524747 37.1774217,13.0961865 37.3357467,13.0961865 C37.5631208,13.0961865 37.7856128,13.0052937 37.9453327,12.8477926 L37.9467276,12.8464049 L37.9481225,12.8450172 C38.0032224,12.790204 38.0492552,12.7291463 38.0855235,12.6646194 C39.4574408,13.4389423 40.8140137,14.3346867 42.1294362,15.3352007 C43.2858362,16.2260883 44.3822541,17.1731767 45.3893962,18.1514879 C45.5749223,18.5164465 45.750684,18.890425 45.9124963,19.2637097 C46.5834594,20.8671686 47.044485,22.5143393 47.2830186,24.1601223 C47.4092601,25.1280259 47.4706372,26.1146631 47.4659887,27.0922804 C47.4601752,28.0109215 47.391126,28.9711929 47.2530275,30.0279077 C46.9768307,31.9907745 46.4690748,33.8620548 45.7437093,35.588323 L45.7437093,35.588323 C45.1006449,37.075911 44.3083226,38.4393021 43.3862714,39.6431104 C42.9078092,40.2536876 42.3972635,40.8309606 41.8671887,41.3575834 C41.3399037,41.8821247 40.7421747,42.4059721 40.0900432,42.9138613 C38.537482,44.1017115 36.7756808,45.1174898 34.8548571,45.9327491 C32.7561794,46.8049031 30.5828728,47.4016035 28.3956168,47.707586 L28.3698105,47.7110551 C27.3640634,47.8414966 26.3276276,47.9081051 25.2890995,47.9081051 C24.2561512,47.9081051 23.2001864,47.8428843 22.1498013,47.7138305 C19.8669924,46.6689109 17.7543653,45.407514 15.8691125,43.9636378 C13.9629356,42.4788251 12.2611166,40.7879426 10.8117805,38.9374775 C9.50333272,37.2361875 8.41179713,35.3780901 7.56716479,33.4159172 C6.71555776,31.3836665 6.12480335,29.2202806 5.81024581,26.9847356 C5.68051698,25.995323 5.60309816,24.9733001 5.57938429,23.9450326 C5.92881517,22.3172894 6.42262169,20.7186874 7.04615707,19.1929383 C7.56925719,18.3415994 8.14675973,17.4944236 8.76471534,16.6736136 C9.7160601,15.5953898 10.7894616,14.5893252 11.9549286,13.6831732 C13.061111,12.8401604 14.2963248,12.038084 15.7317115,11.2318446 C17.0582934,10.4852752 18.4595043,9.79768207 19.896286,9.18779874 C19.9102353,9.18224803 19.9241847,9.17600349 19.9374365,9.17045279 C20.4033444,8.97687208 20.8657649,8.79716811 21.315631,8.63550393 L21.315631,8.63550393 Z M47.9811829,17.325821 C47.8835376,17.1010176 47.7817074,16.8782957 47.6770874,16.6569615 C47.8563364,16.9900036 48.0314005,17.3334533 48.2022799,17.685229 C48.1297434,17.565195 48.0558119,17.4451611 47.9811829,17.325821 L47.9811829,17.325821 Z M51.8786276,34.1375084 C51.8925769,34.0910212 51.9072237,34.0438403 51.9211731,33.9966593 C52.2943178,32.732487 52.5300616,31.3947679 52.627707,29.996685 C52.7211675,30.419926 52.8006787,30.8570437 52.8655431,31.3059567 L52.8655431,31.3350979 L52.8746102,31.3697898 C53.0503719,32.7401192 53.0496744,34.1354268 52.8718203,35.5182454 C52.6807144,36.870535 52.3298886,38.1666238 51.8298049,39.3704322 C51.322049,40.5416303 50.6587581,41.6663412 49.8566712,42.7140361 C49.5504833,43.1046667 49.2254637,43.4848898 48.8823101,43.8540114 C49.4493506,43.0075294 49.9361824,42.1166418 50.3386208,41.1910623 C50.6831694,40.3980059 50.9656435,39.593848 51.1790683,38.8007915 C51.3778464,38.067405 51.534079,37.2757362 51.670085,36.310608 C51.7684278,35.6091381 51.8381745,34.878527 51.8786276,34.1375084 L51.8786276,34.1375084 Z M49.3133446,35.784679 C49.3712343,35.5480804 49.4263342,35.3100941 49.4786442,35.07072 C49.5902389,34.5593617 49.6878843,34.0341265 49.7722777,33.4970962 C49.7583284,33.9848641 49.7318247,34.4643059 49.6920691,34.9347279 C49.6655653,35.0013363 49.6383641,35.0679447 49.6118604,35.1324716 L49.6104654,35.135247 L49.608373,35.1407977 L49.608373,35.1414915 L49.6076756,35.1428792 C49.5156099,35.3565812 49.4179646,35.570977 49.3133446,35.784679 L49.3133446,35.784679 Z M6.594896,37.8765997 C6.10806415,36.7033201 5.72933966,35.4884103 5.46499973,34.2492162 C6.20570951,35.968546 7.12636575,37.6198797 8.19976721,39.1463227 C9.83532693,41.4713728 11.8377542,43.5709256 14.165201,45.4026571 C13.0562288,44.8801974 12.1544041,44.3480238 11.3774261,43.7610372 C10.852931,43.3516729 10.3347132,42.885414 9.79347892,42.3352007 C9.25573199,41.7898443 8.79749628,41.2764044 8.39087312,40.765046 C8.08608011,40.3709462 7.77919471,39.9421545 7.42488156,39.4155317 C7.29515273,39.2233386 7.16821376,39.0318394 7.04615707,38.8465848 C6.8850422,38.5260318 6.7336919,38.199928 6.594896,37.8765997 L6.594896,37.8765997 Z M4.6454762,38.7723441 C4.51226004,38.5496222 4.38392614,38.3255127 4.26117198,38.0986277 C4.32603639,38.2124171 4.39229574,38.3255127 4.45855509,38.4372205 C4.50737777,38.5190934 4.55689792,38.6002724 4.60641806,38.6814514 C4.61897246,38.7119803 4.63222433,38.7418153 4.6454762,38.7723441 L4.6454762,38.7723441 Z M42.3916837,43.4737884 C43.0633443,42.8930462 43.6861822,42.2838567 44.2560126,41.6517706 C44.9799831,40.8476127 45.6439716,39.9685203 46.2417006,39.0249011 C45.9215634,39.7485738 45.5672502,40.4465745 45.1878283,41.1022511 C45.1417954,41.1813486 45.0943677,41.2618338 45.0462425,41.342319 C44.5043108,41.8391067 43.9149513,42.3345069 43.2935083,42.8153364 C42.9977824,43.0401398 42.6971742,43.2600863 42.3916837,43.4737884 L42.3916837,43.4737884 Z M46.6155429,42.3934831 C46.6490213,42.3615665 46.6824997,42.3289562 46.7159781,42.2970396 C47.2837161,41.7496017 47.8200681,41.1737164 48.3222442,40.572853 C47.8340174,41.6427507 47.2209441,42.6626921 46.4969735,43.607699 C45.6425766,44.693555 44.6228801,45.6996197 43.4664801,46.5967518 C43.248173,46.762579 43.0256811,46.9228555 42.8003993,47.078969 C44.2734492,45.7218225 45.5539983,44.1502801 46.6155429,42.3934831 L46.6155429,42.3934831 Z M10.5139622,47.5355142 C10.1652287,47.2649175 9.82835226,46.9859948 9.50333272,46.7001336 C9.91762802,46.9797502 10.3409904,47.2496531 10.7734198,47.5091484 C12.1613788,48.3410598 13.6776717,49.1105258 15.2804505,49.7953436 C16.8246421,50.4565709 18.445555,51.0400884 20.0971564,51.5299378 C20.4214785,51.6263813 20.7471955,51.7179678 21.07361,51.8053914 C18.9944614,51.5167549 16.9983113,50.9811122 15.1402597,50.2130339 C13.4837759,49.5101763 11.9277274,48.609575 10.5139622,47.5355142 L10.5139622,47.5355142 Z M30.4719756,50.135324 C33.1990709,49.7197153 35.8682764,48.9481678 38.4300721,47.8331706 C38.685345,47.7221566 38.9385254,47.6076733 39.1896135,47.4897209 C37.8281582,48.4159942 36.2972185,49.2409673 34.6239956,49.9493755 C34.3868569,50.0479005 34.1455334,50.1443439 33.9042098,50.2366244 C33.5331575,50.259521 33.1593153,50.2713162 32.7917502,50.2713162 C32.7338605,50.2713162 32.6752733,50.2713162 32.6173835,50.2706224 C31.9303787,50.263684 31.2245423,50.2192784 30.4719756,50.135324 L30.4719756,50.135324 Z" id="Shape"></path>
        </g>
    </g>
</svg>