<svg width="2000" height="1048" viewBox="0 0 2000 1048" fill="none" xmlns="http://www.w3.org/2000/svg">
<rect width="2000" height="1048" fill="white"/>
<mask id="mask0_638_2568" style="mask-type:alpha" maskUnits="userSpaceOnUse" x="430" y="35" width="1139" height="978">
<path d="M514.169 254.009C519.646 246.226 542.582 190.163 565.498 175.519C658.214 116.27 681.014 167.12 728.892 152.308C776.77 137.496 772.368 86.1116 850.271 56.5622C863.698 51.4695 878.066 44.5171 892.112 41.4444C994.16 19.1216 1037.03 68.0073 1114.76 115.506C1125.01 121.77 1134.88 121.769 1146.55 121.767L1147.13 121.767C1161.09 121.767 1173.21 124.38 1176.6 139.633C1178.69 149.037 1183.51 157.753 1185.92 167.12C1186.9 170.959 1188.93 178.336 1193.78 179.413C1208.15 182.606 1215.79 162.347 1219.51 152.308C1223.6 141.261 1230 124.713 1238.45 116.27C1246.8 107.918 1257.45 106.649 1268.76 106.649C1277.33 106.649 1281.37 116.439 1286.55 121.767C1293.98 129.414 1301.06 137.868 1307.16 146.582C1310.06 150.725 1310.94 154.673 1311.36 159.561C1311.88 165.52 1315.17 170.046 1317.09 175.519C1319.09 181.233 1321.14 186.897 1323.04 192.622C1324.26 196.265 1324.73 198.093 1326.4 202.853C1328.08 207.613 1333.28 226.241 1333.28 231.027C1333.28 239.622 1335.19 249.359 1337.7 257.521C1339.57 263.572 1347.65 270.704 1354.5 268.745C1360.29 267.09 1371.09 255.091 1384.01 264.211C1396.93 273.33 1388.94 277.682 1392.68 282.565C1399.29 291.207 1406.45 301.608 1410.24 312.037C1413.48 320.951 1422.08 331.362 1428.56 337.844C1433.17 342.446 1439.32 344.41 1445.97 344.41C1453.81 344.41 1459.14 341.253 1466.28 338.608C1470.98 336.866 1475.21 332.418 1478.27 328.682C1481.71 324.481 1487.1 323.45 1490.71 319.596C1502.12 307.428 1530.15 310.806 1541.87 321.352C1548.92 327.697 1550.83 343.094 1552.86 351.587C1555.62 363.104 1558.9 374.655 1560.65 386.404C1563.62 406.337 1563.28 426.812 1564.93 446.875C1569.75 505.379 1572.12 566.38 1561.42 624.47C1554.93 659.654 1552.6 695.838 1543.55 730.6C1529.34 785.205 1501.42 829.645 1480.25 879.029C1478.01 884.266 1473.53 888.432 1469.64 892.467C1467.92 894.253 1453.92 905.628 1443.22 914.762C1432.52 923.896 1429.04 916.702 1422.46 917.434C1405.77 919.288 1395.27 933.851 1384.05 945.074C1369.15 959.972 1356.95 970.548 1336.71 977.294C1318.81 983.261 1301.78 984.853 1283.04 984.853C1259.25 984.853 1235.89 983.213 1212.18 982.028C1184.12 980.625 1156.63 972.683 1128.58 971.033C1114.96 970.232 1101.87 966.987 1088.03 966.987H1046.04C1016.71 966.987 989.013 970.41 960.295 975.844C936.847 980.28 915.12 987.516 892.418 994.473C881.53 997.81 871.807 1000.89 860.503 1003.02C854.683 1004.12 848.535 1005.28 842.941 1007.15C820.836 1014.52 801.907 1011.56 785.219 996.153C779.712 991.07 771.957 983.479 763.993 983.479C750.453 983.479 735.507 983.103 723.068 988.976C704.767 997.618 672.43 991.307 657.406 979.356C557.118 899.582 462.384 817.405 442.703 684.56C441.061 673.474 437.108 662.743 435.831 651.575C434.287 638.061 432.708 624.529 431.021 611.032C428.397 590.038 433.083 568.317 433.083 547.202C433.083 454.824 441.381 376.506 488.056 292.491C496.029 278.14 504.87 267.223 514.169 254.009Z" fill="url(#paint0_linear_638_2568)"/>
</mask>
<g mask="url(#mask0_638_2568)">
<path d="M514.169 254.009C519.646 246.226 542.582 190.163 565.498 175.519C658.214 116.27 681.014 167.12 728.892 152.308C776.77 137.496 772.368 86.1116 850.271 56.5622C863.698 51.4695 878.066 44.5171 892.112 41.4444C994.16 19.1216 1037.03 68.0073 1114.76 115.506C1125.01 121.77 1134.88 121.769 1146.55 121.767L1147.13 121.767C1161.09 121.767 1173.21 124.38 1176.6 139.633C1178.69 149.037 1183.51 157.753 1185.92 167.12C1186.9 170.959 1188.93 178.336 1193.78 179.413C1208.15 182.606 1215.79 162.347 1219.51 152.308C1223.6 141.261 1230 124.713 1238.45 116.27C1246.8 107.918 1257.45 106.649 1268.76 106.649C1277.33 106.649 1281.37 116.439 1286.55 121.767C1293.98 129.414 1301.06 137.868 1307.16 146.582C1310.06 150.725 1310.94 154.673 1311.36 159.561C1311.88 165.52 1315.17 170.046 1317.09 175.519C1319.09 181.233 1321.14 186.897 1323.04 192.622C1324.26 196.265 1324.73 198.093 1326.4 202.853C1328.08 207.613 1333.28 226.241 1333.28 231.027C1333.28 239.622 1335.19 249.359 1337.7 257.521C1339.57 263.572 1347.65 270.704 1354.5 268.745C1360.29 267.09 1371.09 255.091 1384.01 264.211C1396.93 273.33 1388.94 277.682 1392.68 282.565C1399.29 291.207 1406.45 301.608 1410.24 312.037C1413.48 320.951 1422.08 331.362 1428.56 337.844C1433.17 342.446 1439.32 344.41 1445.97 344.41C1453.81 344.41 1459.14 341.253 1466.28 338.608C1470.98 336.866 1475.21 332.418 1478.27 328.682C1481.71 324.481 1487.1 323.45 1490.71 319.596C1502.12 307.428 1530.15 310.806 1541.87 321.352C1548.92 327.697 1550.83 343.094 1552.86 351.587C1555.62 363.104 1558.9 374.655 1560.65 386.404C1563.62 406.337 1563.28 426.812 1564.93 446.875C1569.75 505.379 1572.12 566.38 1561.42 624.47C1554.93 659.654 1552.6 695.838 1543.55 730.6C1529.34 785.205 1501.42 829.645 1480.25 879.029C1478.01 884.266 1473.53 888.432 1469.64 892.467C1467.92 894.253 1453.92 905.628 1443.22 914.762C1432.52 923.896 1429.04 916.702 1422.46 917.434C1405.77 919.288 1395.27 933.851 1384.05 945.074C1369.15 959.972 1356.95 970.548 1336.71 977.294C1318.81 983.261 1301.78 984.853 1283.04 984.853C1259.25 984.853 1235.89 983.213 1212.18 982.028C1184.12 980.625 1156.63 972.683 1128.58 971.033C1114.96 970.232 1101.87 966.987 1088.03 966.987H1046.04C1016.71 966.987 989.013 970.41 960.295 975.844C936.847 980.28 915.12 987.516 892.418 994.473C881.53 997.81 871.807 1000.89 860.503 1003.02C854.683 1004.12 848.535 1005.28 842.941 1007.15C820.836 1014.52 801.907 1011.56 785.219 996.153C779.712 991.07 771.957 983.479 763.993 983.479C750.453 983.479 735.507 983.103 723.068 988.976C704.767 997.618 672.43 991.307 657.406 979.356C557.118 899.582 462.384 817.405 442.703 684.56C441.061 673.474 437.108 662.743 435.831 651.575C434.287 638.061 432.708 624.529 431.021 611.032C428.397 590.038 433.083 568.317 433.083 547.202C433.083 454.824 441.381 376.506 488.056 292.491C496.029 278.14 504.87 267.223 514.169 254.009Z" fill="url(#paint1_linear_638_2568)"/>
<path d="M1099.76 853.607C1225.91 871.086 1260.87 821.688 1241.11 766.97C1213.75 697.66 1082.28 692.492 1019.96 698.572L630.855 798.129L848.968 928.084C923.191 906.551 1077.26 861.51 1099.76 853.607Z" fill="#31978F"/>
<path d="M1011.6 912.885C1005.52 918.356 964.483 917.191 944.724 915.924C950.804 916.204 968.283 915.987 989.562 912.885C1010.84 909.782 1023.25 904.499 1026.8 902.245C1037.19 905.032 1062.37 910.301 1080 909.085C1102.04 907.565 1117.24 902.245 1126.36 902.245C1133.65 902.245 1161.82 911.365 1175 915.924L1243.39 922.004H1191.72C1177.78 922.004 1148.4 920.788 1142.32 915.924C1136.24 911.061 1109.89 909.338 1097.48 909.085L1061 922.004L1041.24 912.885C1033.89 910.605 1017.68 907.413 1011.6 912.885Z" fill="#31978F"/>
<path d="M933.049 387.788C885.186 352.259 657.273 343.563 525.856 345.515C449.622 347.463 314.66 377.323 268.995 432.143C211.913 500.668 77.958 647.974 478.861 646.134C879.764 644.295 949.61 492.352 895.136 488.367C840.661 484.382 819.761 471.76 873.742 466.413C927.723 461.065 980.912 423.317 933.049 387.788Z" fill="#025B59"/>
<path d="M1168.22 12.6486C1174.47 4.48283 1144.91 -19.8781 1155.77 -19.8781C1152.52 -22.9223 766.908 -39.3854 766.908 -29.1924C766.908 -25.9406 767.933 -23.0694 768.359 -19.8774C769.201 -13.5647 772.031 -7.63029 775.154 -2.16371C780.617 7.3956 785.843 12.3432 797.144 12.3432C807.705 12.3432 820.999 14.0893 828.066 22.7271C833.517 29.3891 837.441 35.003 841.428 42.5787C843.079 45.7147 849.453 55.0601 852.117 56.6276C858.662 60.4773 858.159 59.0708 865.174 59.0708C868.87 59.0708 872.052 57.6965 876.168 57.6965C887.939 57.6965 886.951 80.1408 891.973 86.5576C900.349 97.2599 907.668 102.488 920.911 105.798C936.544 109.707 954.411 109.194 968.249 99.6139C974.991 94.9466 982.485 91.3151 989.246 86.5576C995.103 82.436 1000.59 74.272 1004.67 68.3858C1008.49 62.8664 1013.18 55.4761 1014.21 48.7633C1015.33 41.484 1020.66 36.4647 1022.54 29.4461C1023.74 24.9232 1027.86 17.9253 1032.16 15.3973C1037.88 12.028 1038.3 10.3005 1045.9 12.0378C1054.29 13.956 1056.13 14.3902 1061.7 21.2001C1067.41 28.1764 1068.59 32.5924 1069.19 41.8916C1070.22 57.8901 1071.88 74.3129 1073.69 90.2225C1074.65 98.6597 1076.93 106.998 1077.43 115.495C1077.85 122.565 1077.39 129.334 1078.58 136.339C1081.27 152.177 1085.23 179.122 1107.74 171.08C1118.7 167.168 1123.04 139.261 1125.31 129.62C1128.4 116.442 1131.77 103.322 1134.54 90.0698C1136.61 80.216 1141.1 71.2595 1143.48 61.5141C1145.95 51.3747 1150 42.9843 1155.77 34.3327C1160.39 27.4047 1163.12 19.3004 1168.22 12.6486Z" fill="#77A39F"/>
<path d="M1226.59 -19.08C1222.15 -29.5283 1216.39 -45.3033 1214.51 -56.8403L1638.23 -33.4918V295.731C1638.23 278.737 1638.44 305.141 1638.13 309.537C1637.3 321.402 1636.62 334.051 1634.01 345.528C1628.45 369.97 1622.39 396.087 1613.12 418.924C1605.41 437.918 1595.71 466.444 1575.98 458.97C1560.66 453.166 1551.88 440.349 1547.76 422.228C1542.8 400.402 1545.07 372.184 1531.28 355.204C1521.79 343.52 1514.7 350.123 1507.13 359.452C1501.23 366.72 1497.76 379.563 1495.05 389.188C1492.11 399.661 1491.1 415.683 1486.43 424.824C1479.78 437.821 1477.67 447.471 1464 446.536C1459.68 446.241 1455.03 438.56 1452.69 434.854C1448.67 428.488 1444.68 426.001 1438.99 422.228C1431.76 417.438 1420.95 233.149 1367.75 226.419C1314.55 219.688 1335.57 292.427 1305.68 292.427C1275.79 292.427 1270.21 189.838 1269.71 149.661C1269.49 130.994 1263.65 111.284 1259.36 93.493C1255.09 75.7462 1251.36 55.6039 1244.8 38.9765C1237.4 20.2285 1234.3 -0.934662 1226.59 -19.08Z" fill="#77A39F"/>
<path d="M685.426 301.478C694.163 328.661 715.913 382.538 707.11 386.381C698.307 390.225 682.688 391.879 677.943 391.879C658.271 391.879 638.585 390.504 618.999 390.504C607.924 390.504 595.568 390.263 585.099 386.076C579.81 383.96 583.419 379.281 583.419 376.074C583.419 370.957 585.086 354.772 590.978 354.772C605.046 354.772 607.411 335.865 612.968 325.987C620.443 312.697 627.833 297.17 638.393 286.054C640.728 283.597 647.179 275.051 650.762 281.321C653.044 285.314 656.39 288.803 660.993 288.803C672.004 288.803 681.946 290.651 685.426 301.478Z" fill="#7EADAA"/>
<path d="M686.015 443.636C694.802 423.859 716.676 384.66 707.823 381.864C698.97 379.067 683.262 377.864 678.49 377.864C658.705 377.864 638.907 378.864 619.209 378.864C608.07 378.864 595.644 379.039 585.115 382.086C579.797 383.625 583.426 387.03 583.426 389.363C583.426 393.086 585.102 404.862 591.028 404.862C605.177 404.862 607.555 418.617 613.143 425.804C620.661 435.474 628.093 446.77 638.714 454.858C641.062 456.646 647.55 462.863 651.153 458.302C653.448 455.396 656.814 452.858 661.443 452.858C672.517 452.858 682.515 451.513 686.015 443.636Z" fill="#7EADAA" fill-opacity="0.39"/>
<path d="M791.268 336.299C794.137 341.464 812.22 388.359 810.203 391.273C808.186 394.186 792.712 392.647 786.534 392.647C776.832 392.647 767.681 389.898 757.978 389.898C749.555 389.898 765.139 358.597 766.224 355.234C768.181 349.167 772.607 345.867 775.539 340.422C776.842 338.002 779.425 331.167 782.716 330.802C786.932 330.333 789.359 332.863 791.268 336.299Z" fill="#7EADAA"/>
<path d="M791.169 419.534C794.031 415.88 812.064 382.704 810.053 380.643C808.042 378.582 792.61 379.671 786.449 379.671C776.773 379.671 767.647 381.616 757.971 381.616C749.571 381.616 765.113 403.759 766.195 406.138C768.147 410.431 772.56 412.765 775.484 416.617C776.784 418.329 779.359 423.164 782.642 423.423C786.845 423.754 789.266 421.964 791.169 419.534Z" fill="#7EADAA" fill-opacity="0.46"/>
<path d="M547.266 314.897C553.754 332.738 566.22 371.498 562.384 373.23C558.547 374.962 544.017 377.353 540.089 377.353C535.275 377.353 530.13 377.874 525.353 377.276C511.797 375.582 521.525 360.67 525.276 352.309C531.023 339.503 536.27 326.596 541.768 313.675C543.847 308.789 545.994 311.398 547.266 314.897Z" fill="#7EADAA"/>
<path d="M546.85 412.917C553.244 399.475 565.531 370.274 561.75 368.969C557.969 367.664 543.647 365.863 539.776 365.863C535.031 365.863 529.961 365.471 525.252 365.92C511.892 367.197 521.48 378.432 525.177 384.73C530.84 394.378 536.012 404.102 541.432 413.837C543.481 417.518 545.596 415.552 546.85 412.917Z" fill="#7EADAA" fill-opacity="0.7"/>
<path d="M658.78 879.935C659.862 887.272 663.552 896.963 676.341 912.614C689.13 928.265 704.594 930.304 715.128 944.224C721.293 952.371 733.241 964.573 735.438 974.46C738.115 986.509 742.309 997.019 742.309 1009.73C742.309 1027.93 745.272 1049.09 739.561 1066.54C737.561 1072.65 734.078 1078.64 730.246 1083.8C726.338 1089.06 717.983 1087.33 712.227 1086.85C691.445 1085.1 670.886 1081.19 650.076 1079.67C625.936 1077.91 602.208 1076.86 578.381 1072.04C538.305 1063.93 498.79 1053.84 464.005 1031.42C440.153 1016.05 431.625 996.013 424.837 969.573C418.789 946.02 411.385 922.894 404.909 899.482C399.106 878.504 391.823 858.44 389.409 836.72C386.953 814.611 384.768 792.785 384.981 770.446C385.106 757.34 386.906 744.451 386.279 731.278C385.744 720.04 384.531 709.077 385.057 697.759C385.593 686.228 387.454 667.585 397.35 659.888C403.738 654.919 419.515 658.437 425.906 662.484C437.684 669.944 448.652 677.161 459.195 686.153C470.553 695.841 475.08 714.229 479.2 727.765C481.911 736.676 482.559 747.632 482.559 757.008C482.559 765.966 489.584 780.678 499.738 780.678C502.08 780.678 512.489 779.458 512.794 782.052C513.444 787.569 519.331 792.17 519.666 798.544C520.21 808.881 529.426 838.71 542.419 841.072C548.283 842.138 553.243 842.273 555.094 836.72C559.59 823.232 559.835 808.6 564.332 795.108C569.459 779.729 579.792 755.939 598.004 755.939C608.057 755.939 620.529 772.548 625.49 779.99C635.657 795.24 645.688 812.189 649.618 830.154C651.707 839.707 655.428 848.99 656.795 858.71C657.781 865.725 657.744 872.916 658.78 879.935Z" fill="#88DECF"/>
<path d="M1477.26 798.266C1478.39 799.486 1490.72 834.865 1490.15 849.601C1489.59 864.337 1492.52 884.27 1492.9 901.994C1493.16 914.479 1496.04 928.387 1498.7 940.451C1502.08 955.798 1502.51 970.482 1502.51 986.229C1502.51 1007.82 1504.18 1031.75 1488.17 1046.83C1477.77 1056.62 1462.73 1060.08 1450.02 1063.94C1426.03 1071.21 1401.34 1075.37 1377 1080.7C1337.95 1089.25 1298.61 1096.69 1259.11 1101.86C1225.01 1106.33 1190.7 1108.13 1156.56 1112.45C1120.47 1117.01 1084.71 1117.86 1048.52 1114.74C1022.72 1112.52 995.003 1110.72 970.314 1100.98C949.014 1092.58 921.697 1074.26 934.224 1044.18C942.165 1025.11 955.112 1011.81 965.508 994.873C969.963 987.616 974.62 982.771 980.182 976.986L980.539 976.615C984.543 972.449 986.788 967.006 991.602 963.913C1000.64 958.11 1005.25 957.563 1015.64 957.563C1027.67 957.563 1039.64 963.345 1051.73 965.148C1067.7 967.53 1083.91 971.666 1099.95 973.351C1112.02 974.62 1130.63 975.361 1140.62 966.383C1145.14 962.315 1150.62 953.288 1156.41 951.565C1162.78 949.673 1174.29 951.415 1179 956.857C1182.27 960.638 1185.64 966.124 1187.31 971.058C1188.96 975.915 1189.36 982.61 1191.43 986.935C1194.62 993.572 1200.81 990.818 1207.23 988.963L1207.53 988.875C1216.81 986.192 1227.98 982.965 1237.44 982.965C1243.69 982.965 1251 982.111 1256.37 978.202C1263.16 973.256 1272.64 970.681 1276.2 960.385C1282.77 941.417 1297.34 927.41 1305.05 908.698C1310.24 896.081 1318.08 880.547 1328.17 872.534C1335.73 866.524 1341.99 865.753 1351.13 869.006C1363.79 873.509 1375.22 882.032 1388.52 875.004C1398.16 869.911 1402.9 862.606 1409.2 852.6C1420.73 834.261 1429.94 813.915 1442.08 795.973C1452.47 780.623 1466.5 786.63 1477.26 798.266Z" fill="#88DECF"/>
</g>
<path d="M960.472 383.096C953.792 355.166 962.293 310.234 1026.05 305.376C1124.81 297.852 1138.32 382.232 1145.66 450.494C1145.66 497.855 1187.46 492.484 1228.83 519.682C1274.97 550.011 1308.39 644.794 1312.03 676.975C1320.53 686.69 1383.07 690.333 1427.4 631.436C1443.79 710.37 1370.93 750.444 1303.53 745.587C1301.71 752.266 1282.28 780.804 1264.06 796.59C1245.85 812.377 1208.81 799.019 1186.34 788.697C1168.37 780.439 1176.43 756.516 1182.7 745.587C1161.44 748.592 1141.02 743.052 1128.04 724.304C1123.18 739.484 1114.44 745.939 1107.4 754.664C1098.93 765.156 1059.44 746.582 1041.23 734.657C1021.64 721.832 1044.14 683.347 1039.41 644.794C984.589 612.309 977.61 546.033 972.615 530.036C964.847 532 915.751 530.322 893.681 525.785C872.237 521.378 870.001 513.642 868.179 505.748C866.358 497.855 870.001 486.925 873.644 468.71C877.287 450.494 882.752 448.673 904.61 444.422C926.469 440.172 1035.97 457.379 1041.23 459.602C1045.49 461.401 1043.05 439.565 1039.41 426.207C1010.26 434.1 967.151 411.027 960.472 383.096Z" fill="#A8D945" stroke="black" stroke-width="8.50061" stroke-linejoin="round"/>
<path d="M1194.83 729.768C1190.38 736.448 1177.22 754.906 1177.22 758.306" stroke="black" stroke-width="8.50061" stroke-linecap="round"/>
<circle cx="1033.32" cy="373.958" r="6.07186" fill="black"/>
<circle cx="995.674" cy="371.529" r="6.07186" fill="black"/>
<path d="M1033.32 427.39C1039.8 426.378 1055.18 423.261 1064.89 416.461" stroke="black" stroke-width="8.50061" stroke-linecap="round"/>
<path d="M893.628 458.694L891.847 456.28L888.876 456.698L663.779 488.341L661.934 488.6L660.703 489.997C648.111 504.285 633.746 523.442 628.378 545.622C622.907 568.224 626.915 593.412 649.954 618.955C667.089 637.952 684.586 647.819 702.898 651.017C720.981 654.174 739.253 650.716 757.868 644.182L987.65 598.226L995.415 596.673L990.714 590.301L893.628 458.694Z" fill="#FFCD2E" stroke="black" stroke-width="10.0682"/>
<path d="M1117.4 663.084V660.163L1114.87 658.713L1004.12 595.427L1002.47 594.487L1000.61 594.865L771.201 641.611L767.172 642.431V646.543V804.758V807.715L769.754 809.155L888.416 875.318L890.272 876.353L892.308 875.745L1113.81 809.582L1117.4 808.509V804.758V663.084Z" fill="#FFCD2E" stroke="black" stroke-width="10.0682"/>
<path d="M918.915 845.031V724.213L1098.7 682.501V792.533L918.915 845.031Z" fill="#E95763"/>
<path d="M983.622 742.155V709.074L1036.12 696.129V732.087L989.376 743.594L983.622 742.155Z" fill="#C19428"/>
<path d="M989.376 743.594V702.602L1041.87 690.376V730.649L989.376 743.594Z" fill="#FFCD2E"/>
<path d="M788.747 792.533V679.625L872.169 719.179V834.963L788.747 792.533Z" fill="#E95763"/>
<path d="M898.059 695.446L803.849 649.42L995.865 608.428L1075.69 654.454L898.059 695.446Z" fill="#E95763"/>
<path d="M772.353 616.302L696.122 506.271L876.632 479.662L950.705 578.906L772.353 616.302Z" fill="#E95763"/>
<path d="M772.908 616.302L733.354 559.489L883.659 530.003L934 581.783L772.908 616.302Z" fill="url(#paint2_linear_638_2568)"/>
<path d="M739.991 624.933L666.637 519.216C658.726 532.88 637.871 561.647 661.603 595.447C680.791 622.775 716.259 632.843 739.991 624.933Z" fill="#E95763"/>
<path d="M995.848 672.397V608.392L1074.96 654.418L995.848 672.397Z" fill="#CB3945"/>
<path d="M764.635 635.001L661.076 489.011C644.535 510.826 595.632 550.859 646.693 612.707C697.753 674.555 737.067 646.987 764.635 635.001Z" fill="#401D1D" fill-opacity="0.32"/>
<path d="M886.174 704.759L764.636 643.631V802.565L886.174 871.605V704.759Z" fill="#401D1D" fill-opacity="0.32"/>
<ellipse cx="822.102" cy="850.554" rx="20.5041" ry="9.61128" fill="#EF9A37"/>
<rect x="801.598" y="840.943" width="41.0081" height="9.61128" fill="#EF9A37"/>
<ellipse cx="822.102" cy="840.943" rx="20.5041" ry="9.61128" fill="#FFCD2E"/>
<path d="M809.928 840.302C810.254 838.329 812.613 834.922 822.133 835.191C831.653 835.46 834.826 838.867 835.558 840.302" stroke="#EF9A37" stroke-width="1.92226" stroke-linecap="round"/>
<ellipse cx="1111.2" cy="828.979" rx="20.5041" ry="9.61128" fill="#F29B35"/>
<rect x="1090.7" y="819.368" width="41.0081" height="9.61128" fill="#F29B35"/>
<ellipse cx="1111.2" cy="819.368" rx="20.5041" ry="9.61128" fill="#FFF174"/>
<path d="M1099.03 818.727C1099.36 816.755 1101.72 813.347 1111.24 813.616C1120.76 813.885 1123.93 817.293 1124.66 818.727" stroke="#F29B35" stroke-width="1.92226" stroke-linecap="round"/>
<ellipse cx="794.864" cy="835.922" rx="20.5041" ry="9.61128" transform="rotate(-18.5376 794.864 835.922)" fill="#EF9A37"/>
<rect x="772.368" y="833.328" width="41.0081" height="9.61128" transform="rotate(-18.5376 772.368 833.328)" fill="#EF9A37"/>
<ellipse cx="791.808" cy="826.809" rx="20.5041" ry="9.61128" transform="rotate(-18.5376 791.808 826.809)" fill="#FFCD2E"/>
<path d="M780.062 830.072C779.743 828.098 780.897 824.118 790.009 821.346C799.12 818.574 803.212 820.796 804.362 821.924" stroke="#EF9A37" stroke-width="1.92226" stroke-linecap="round"/>
<ellipse cx="1015.27" cy="704.04" rx="8.62992" ry="10.7874" fill="#58420D"/>
<path d="M1012.39 707.636L1019.58 707.636L1019.58 724.896L1012.39 726.334L1012.39 707.636Z" fill="#58420D"/>
<path d="M865.129 470.5C868.772 452.285 882.738 446.213 904.596 441.963C930.109 440.461 955.195 447.585 980.509 449.887L972.616 530.036C964.847 532 915.752 530.322 893.681 525.785C872.237 521.378 873.446 513.087 868.179 506.932C860.879 498.4 861.486 488.716 865.129 470.5Z" fill="#A8D945"/>
<path d="M979.28 528.183C971.512 530.147 915.752 530.321 893.681 525.785C842.824 515.332 858.464 446.851 896.096 441.962C933.727 437.074 961.672 448.641 998.71 452.285" stroke="black" stroke-width="8.50061" stroke-linecap="round"/>
<path d="M1068.79 616.863C1076.08 581.889 1123.24 561.002 1145.9 554.93L1202.12 624.726C1188.76 644.156 1147.86 665.926 1130.47 669.658C1111.06 673.824 1059.68 660.58 1068.79 616.863Z" fill="#A8D945"/>
<path d="M1145.9 554.93C1123.24 561.002 1076.08 581.889 1068.79 616.863C1059.68 660.58 1111.06 673.824 1130.47 669.658C1147.86 665.926 1188.76 644.156 1202.12 624.726" stroke="black" stroke-width="8.50061" stroke-linecap="round"/>
<circle cx="946.226" cy="527.846" r="84.8609" fill="white"/>
<circle cx="946.226" cy="527.846" r="102.121" stroke="#93EBE6" stroke-opacity="0.7" stroke-width="34.5197"/>
<circle cx="967.301" cy="624.202" r="11.0239" fill="white"/>
<circle cx="967.301" cy="624.202" r="15.8875" stroke="#B4F1EE" stroke-opacity="0.64" stroke-width="9.72727"/>
<circle cx="937.332" cy="675.346" r="6.01301" fill="white"/>
<circle cx="937.332" cy="675.346" r="10.8766" stroke="#B4F1EE" stroke-opacity="0.64" stroke-width="9.72727"/>
<path d="M639.975 706.172L687.093 719.852C681.267 719.852 667.486 718.94 658.974 715.292C648.335 710.732 639.975 723.651 625.536 724.411C611.096 725.171 595.137 719.852 584.497 719.852H525.979L558.658 715.292L584.497 709.972C589.057 711.999 601.825 716.812 616.416 719.852C631.007 722.891 638.202 711.999 639.975 706.172Z" fill="#17887F"/>
<path d="M988.98 489.978C1003.73 525.988 988.98 545.35 976.5 556.025C979.55 566.7 967.394 568.902 962.775 563.65C949.182 568.337 921.562 568.187 901.775 548.4C891.1 537.725 899.429 513.977 927.7 498.075C952.1 484.35 976.5 476.725 988.98 489.978Z" fill="#FDCF2B"/>
<path d="M927.7 498.075C948.585 484.36 973.526 478.613 983.722 487.493C999.375 501.125 950.575 531.965 932.275 539.25C912.45 547.142 923.125 565.175 912.45 565.175C903.3 565.175 904.825 552.975 896.642 541.537C891.809 534.782 903.788 513.778 927.7 498.075Z" fill="white" stroke="#FDCF2B" stroke-width="3.05"/>
<path d="M972.03 489.754C986.198 493.568 970.919 507.124 958.907 515.789C947.525 524 938.761 528.63 934.742 530.522C933.625 531.048 929.81 523.652 929.81 527.472C929.81 528.743 927.676 534.298 926.961 534.566C922.799 536.125 914.081 538.498 909.166 538.498C898.517 538.498 903.3 524 918.36 510.678C921.079 508.271 922.865 508.712 925.322 508.712C923.684 506.353 923.694 505.913 926.551 503.994C939.256 495.458 955.15 489.754 961.896 488.684C963.013 488.727 964.397 489.754 964.397 490.602C965.647 490.178 970.788 489.42 972.03 489.754Z" fill="#FDCF2B"/>
<path d="M928.608 513.296C931.609 511.016 933.622 510.215 935.007 505.592C936.735 505.96 937.575 505.349 938.945 503.451C939.932 504.874 943.996 505.308 946.425 505.592C944.243 506.967 943.2 508.19 941.995 512.012C937.529 510.148 932.336 511.092 928.608 513.296Z" fill="white"/>
<defs>
<linearGradient id="paint0_linear_638_2568" x1="999.611" y1="35.8763" x2="999.611" y2="1011" gradientUnits="userSpaceOnUse">
<stop stop-color="#2A5451"/>
<stop offset="1" stop-color="#48B9B0"/>
</linearGradient>
<linearGradient id="paint1_linear_638_2568" x1="999.611" y1="35.8763" x2="999.611" y2="1011" gradientUnits="userSpaceOnUse">
<stop stop-color="#2A5451"/>
<stop offset="1" stop-color="#48B9B0"/>
</linearGradient>
<linearGradient id="paint2_linear_638_2568" x1="834.037" y1="600.481" x2="826.126" y2="542.948" gradientUnits="userSpaceOnUse">
<stop stop-color="#CB3945"/>
<stop offset="1" stop-color="#CB3945" stop-opacity="0"/>
</linearGradient>
</defs>
</svg>
