<?xml version="1.0" encoding="UTF-8" standalone="no"?>
<!-- Created with Inkscape (http://www.inkscape.org/) -->

<svg
   width="256pt"
   height="256pt"
   viewBox="0 0 90.311109 90.31111"
   version="1.1"
   id="svg5"
   xml:space="preserve"
   xmlns="http://www.w3.org/2000/svg"
   xmlns:svg="http://www.w3.org/2000/svg"><defs
     id="defs2" /><g
     id="layer1"><path
       style="fill:#060606;stroke:none;stroke-width:0.36041"
       d="M 43.260561,6.3170357 C 32.85172,7.7119944 23.798284,11.067819 16.565631,19.270626 13.439701,22.815863 10.884847,27.132039 9.3710419,31.650518 0.22081438,58.96238 21.876827,87.407366 50.395435,83.613657 68.845494,81.159162 83.205486,64.026484 83.205486,45.122754 c 0,-20.535 -18.757921,-41.6451191 -39.944925,-38.8057183 M 73.227014,57.502646 H 72.870275 C 69.808708,47.730177 68.199796,35.791228 59.314018,29.546192 48.060196,21.636716 23.80071,25.899475 22.273812,42.209837 c -0.683521,7.301589 5.969424,13.570911 12.068167,15.998462 1.973863,0.785759 6.075699,1.038455 7.543698,2.519308 0.969632,0.978376 1.102698,3.125923 1.420201,4.421443 0.879011,3.590168 1.968145,7.255707 2.451896,10.923433 -5.957975,0 -11.626237,-1.137858 -16.766946,-4.393405 C 25.337632,69.365859 22.147204,66.223186 19.725665,62.600247 3.1717328,37.832089 29.295771,5.0160178 56.460079,16.213594 c 3.938448,1.623441 7.35426,3.98891 10.344136,7.062582 3.594896,3.695544 6.075337,8.11706 7.492679,13.10783 2.070537,7.291029 0.794108,14.002386 -1.06988,21.11864 M 53.249387,74.980139 C 52.262982,70.102827 50.998688,65.247725 49.815009,60.41556 49.266701,58.176622 49.004857,55.542617 47.165126,53.971827 45.562996,52.603485 43.408971,52.853632 41.476852,52.476045 37.149908,51.630572 31.558595,49.457172 30.009045,44.75864 c -1.003128,-3.041449 1.011867,-5.969658 3.264095,-7.762557 4.756854,-3.787409 11.772922,-4.189792 17.479034,-2.997099 10.152931,2.122132 11.31056,14.070911 14.031797,22.411318 0.753442,2.308485 3.295959,7.494932 2.335239,9.831091 -1.857205,4.515747 -9.510064,7.808434 -13.869823,8.738746 M 43.622666,37.746523 c -4.497469,1.802002 -1.600714,8.87893 2.843247,7.008475 4.50388,-1.895945 1.618539,-8.795549 -2.843247,-7.008475 z"
       id="path267" /></g></svg>
